<svg width="22" height="22" viewBox="0 0 22 22" fill="none" xmlns="http://www.w3.org/2000/svg">
<path fill-rule="evenodd" clip-rule="evenodd" d="M7.71881 10.2331H8.45933V8.66881C8.45946 8.26596 8.53912 7.8671 8.69372 7.4951C8.84832 7.1231 9.07484 6.78527 9.36027 6.501C9.64434 6.21523 9.98211 5.98844 10.3541 5.83368C10.7262 5.67893 11.1251 5.59926 11.5281 5.59926C11.931 5.59926 12.33 5.67893 12.702 5.83368C13.0741 5.98844 13.4118 6.21523 13.6959 6.501C13.9813 6.78527 14.2078 7.1231 14.3625 7.4951C14.5171 7.8671 14.5967 8.26596 14.5968 8.66881V10.2296H15.1874C15.2508 10.2299 15.3115 10.2552 15.3563 10.3C15.4012 10.3448 15.4265 10.4056 15.4267 10.469V15.5182C15.4265 15.5816 15.4012 15.6424 15.3563 15.6872C15.3115 15.732 15.2508 15.7573 15.1874 15.7576H7.71881C7.6554 15.7573 7.59466 15.732 7.54983 15.6872C7.505 15.6424 7.47971 15.5816 7.47948 15.5182V10.4724C7.47971 10.409 7.505 10.3483 7.54983 10.3035C7.59466 10.2586 7.6554 10.2333 7.71881 10.2331ZM2.98777 4.4754C2.64847 4.89388 2.34561 5.34063 2.0825 5.81077C1.02365 7.69042 0.556155 9.84567 0.741054 11.9951C0.924188 14.122 1.76076 16.1401 3.13605 17.7728C3.62752 18.3595 4.17494 18.8971 4.77058 19.3778C6.65497 20.9309 9.02719 21.7687 11.469 21.7437C13.9107 21.7186 16.2653 20.8322 18.1174 19.2408C18.7013 18.749 19.2359 18.2016 19.7137 17.6063C20.8457 16.2041 21.5907 14.5299 21.8746 12.7504C22.154 10.9617 21.9646 9.13108 21.3249 7.43749C20.7307 5.79369 19.764 4.30974 18.5006 3.10187C17.2891 1.95811 15.7995 1.151 14.1798 0.760633C13.6527 0.634208 13.1157 0.553554 12.5747 0.519573C12.0136 0.483763 11.4504 0.49711 10.8916 0.55946C10.8023 0.563833 10.7147 0.586452 10.6344 0.625926C10.5541 0.6654 10.4828 0.720892 10.4247 0.788986C10.3667 0.857079 10.3232 0.936333 10.297 1.02187C10.2707 1.1074 10.2622 1.1974 10.2721 1.28633C10.2819 1.37526 10.3099 1.46123 10.3542 1.53895C10.3985 1.61668 10.4583 1.68451 10.5298 1.73826C10.6013 1.79202 10.6831 1.83056 10.7701 1.85152C10.857 1.87249 10.9474 1.87542 11.0356 1.86015C11.5195 1.80603 12.0072 1.79443 12.4932 1.82546C12.9609 1.85499 13.4251 1.92521 13.8806 2.03531C15.2765 2.37312 16.5599 3.06956 17.604 4.05571C18.7206 5.12482 19.5748 6.43778 20.0996 7.89187C20.6597 9.37333 20.8261 10.9747 20.5826 12.5397C20.334 14.0946 19.6826 15.5574 18.6931 16.7825C18.2692 17.3123 17.7946 17.7996 17.2763 18.2375C15.6561 19.6338 13.5941 20.4115 11.4554 20.4329C9.31675 20.4543 7.23954 19.7181 5.59175 18.3546C5.06161 17.9275 4.5743 17.4497 4.13671 16.9282C2.93696 15.5007 2.20821 13.7369 2.05041 11.8789C1.88813 9.99302 2.29788 8.102 3.22623 6.45244C3.48416 5.99183 3.78463 5.55637 4.12371 5.15175L4.21909 7.78434C4.21854 7.87249 4.2358 7.95983 4.26982 8.04114C4.30384 8.12246 4.35394 8.19606 4.4171 8.25754C4.48026 8.31903 4.55518 8.36712 4.63738 8.39895C4.71958 8.43077 4.80736 8.44567 4.89545 8.44275C4.98355 8.43983 5.07015 8.41915 5.15006 8.38195C5.22997 8.34475 5.30154 8.2918 5.36049 8.22626C5.41944 8.16073 5.46455 8.08397 5.49311 8.00058C5.52167 7.9172 5.5331 7.8289 5.52672 7.74099L5.37757 3.54757C5.37147 3.37406 5.29669 3.21007 5.16969 3.09169C5.04269 2.97331 4.87386 2.91022 4.70035 2.91631C4.6778 2.91631 4.65526 2.91631 4.63358 2.92237L0.566762 3.49294C0.39428 3.51675 0.238318 3.60809 0.133186 3.74689C0.0280541 3.88568 -0.0176365 4.06055 0.006166 4.23303C0.0299685 4.40552 0.121314 4.56148 0.260108 4.66661C0.398902 4.77174 0.573775 4.81743 0.746257 4.79363L2.98777 4.47886V4.4754ZM9.65076 10.2331H13.4037V8.65147C13.4035 8.40526 13.3548 8.1615 13.2603 7.93414C13.1659 7.70678 13.0274 7.5003 12.8531 7.3265C12.5906 7.06483 12.2566 6.88672 11.8931 6.81463C11.5296 6.74254 11.1529 6.77969 10.8105 6.92141C10.4681 7.06312 10.1753 7.30305 9.96907 7.61094C9.76283 7.91883 9.65237 8.28089 9.65163 8.65147L9.65076 10.2331ZM11.5428 12.9958L11.9218 14.7439H10.8812L11.1856 12.9724C11.0224 12.9203 10.8838 12.8106 10.7957 12.6638C10.7076 12.517 10.6761 12.3431 10.7069 12.1746C10.7378 12.0062 10.829 11.8548 10.9634 11.7487C11.0978 11.6427 11.2663 11.5892 11.4373 11.5984C11.6083 11.6076 11.7701 11.6788 11.8924 11.7987C12.0147 11.9186 12.0891 12.0789 12.1017 12.2497C12.1143 12.4204 12.0643 12.5899 11.9609 12.7265C11.8576 12.863 11.708 12.9572 11.5402 12.9914L11.5428 12.9958Z" fill="#4B5767"/>
</svg>
