<svg width="33" height="33" viewBox="0 0 33 33" fill="none" xmlns="http://www.w3.org/2000/svg">
<g opacity="0.8">
<path d="M16.7562 1.618C13.8757 1.6178 11.0598 2.4718 8.66462 4.07199C6.26945 5.67218 4.40259 7.9467 3.30012 10.6079C2.19766 13.2691 1.9091 16.1975 2.47094 19.0227C3.03278 21.8479 4.41979 24.443 6.45656 26.4799C8.49333 28.5169 11.0884 29.904 13.9136 30.4661C16.7387 31.0281 19.6671 30.7398 22.3284 29.6375C24.9897 28.5352 27.2643 26.6685 28.8647 24.2734C30.465 21.8784 31.3192 19.0625 31.3192 16.182C31.315 12.3209 29.7793 8.61906 27.0492 5.88873C24.3191 3.15839 20.6174 1.6225 16.7562 1.618ZM16.7562 0C19.9567 0 23.0853 0.949058 25.7465 2.72716C28.4076 4.50526 30.4817 7.03254 31.7064 9.98942C32.9312 12.9463 33.2517 16.2 32.6273 19.339C32.0029 22.478 30.4617 25.3613 28.1986 27.6244C25.9355 29.8875 23.0522 31.4287 19.9132 32.0531C16.7742 32.6775 13.5205 32.357 10.5636 31.1322C7.60676 29.9074 5.07948 27.8334 3.30138 25.1722C1.52328 22.5111 0.574219 19.3825 0.574219 16.182C0.574219 11.8903 2.2791 7.77431 5.31382 4.7396C8.34853 1.70488 12.4645 0 16.7562 0Z" fill="white"/>
<path d="M17.096 6.25485C15.9166 6.19092 14.7447 6.47816 13.7286 7.08023C12.7124 7.68231 11.8976 8.57218 11.3872 9.63733C10.8768 10.7025 10.6937 11.8951 10.861 13.0643C11.0284 14.2335 11.5387 15.3268 12.3274 16.206C13.1161 17.0852 14.1478 17.7108 15.2921 18.0036C16.4363 18.2965 17.6417 18.2434 18.7558 17.8512C19.8699 17.459 20.8427 16.7453 21.5512 15.8002C22.2597 14.8552 22.672 13.7212 22.736 12.5418C22.742 12.4338 22.745 12.3258 22.745 12.2178C22.7856 10.6783 22.2135 9.18556 21.1543 8.06751C20.0951 6.94945 18.6355 6.29751 17.096 6.25485Z" fill="white"/>
<path d="M5.70312 26.1393V25.4493C5.70312 23.5543 8.83212 19.8633 12.1561 19.8633H21.3881C24.7131 19.8633 27.8411 23.5543 27.8411 25.4493V26.1393C26.461 27.7988 24.7408 29.1429 22.7968 30.0807C20.8527 31.0185 18.73 31.5281 16.5721 31.5753C14.4659 31.5576 12.3916 31.0587 10.5078 30.1165C8.62404 29.1743 6.9806 27.8139 5.70312 26.1393Z" fill="white"/>
</g>
</svg>
