<svg width="18" height="20" viewBox="0 0 18 20" fill="none" xmlns="http://www.w3.org/2000/svg">
<path fill-rule="evenodd" clip-rule="evenodd" d="M13.0461 3.2095H16.582V3.20863C16.668 3.20308 16.7542 3.21524 16.8354 3.24435C16.9165 3.27345 16.9908 3.31888 17.0537 3.37784C17.1165 3.43679 17.1667 3.50801 17.2009 3.5871C17.2352 3.66619 17.2529 3.75146 17.2529 3.83765C17.2529 3.92384 17.2352 4.00911 17.2009 4.0882C17.1667 4.16729 17.1165 4.23851 17.0537 4.29746C16.9908 4.35641 16.9165 4.40185 16.8354 4.43095C16.7542 4.46005 16.668 4.47221 16.582 4.46667H15.9021L15.357 19.371C15.3493 19.5442 15.2736 19.7074 15.1463 19.8251C15.019 19.9428 14.8504 20.0055 14.6771 19.9996H2.57487C2.40477 19.9945 2.24224 19.9281 2.11729 19.8126C1.99233 19.697 1.91338 19.5402 1.89499 19.371L1.35073 4.46754H0.670851C0.584841 4.47308 0.498607 4.46092 0.41748 4.43182C0.336353 4.40271 0.262058 4.35728 0.199185 4.29833C0.136311 4.23938 0.0861951 4.16815 0.0519355 4.08907C0.0176759 4.00998 0 3.92471 0 3.83852C0 3.75233 0.0176759 3.66705 0.0519355 3.58797C0.0861951 3.50888 0.136311 3.43766 0.199185 3.3787C0.262058 3.31975 0.336353 3.27432 0.41748 3.24521C0.498607 3.21611 0.584841 3.20395 0.670851 3.2095H4.81796V1.44893C4.82267 1.25021 4.86725 1.05446 4.94906 0.873298C5.03087 0.692135 5.14823 0.529253 5.2942 0.394319C5.44016 0.259384 5.61174 0.155147 5.79876 0.0877933C5.98578 0.0204395 6.18442 -0.00865843 6.3829 0.00222706H11.4811C11.6796 -0.00865843 11.8783 0.0204395 12.0653 0.0877933C12.2523 0.155147 12.4239 0.259384 12.5699 0.394319C12.7158 0.529253 12.8332 0.692135 12.915 0.873298C12.9968 1.05446 13.0414 1.25021 13.0461 1.44893V3.2095ZM6.45159 1.26027C6.31538 1.26027 6.24727 1.32316 6.24727 1.44893H6.31509V3.2095H11.755V1.44893C11.755 1.32316 11.6869 1.26027 11.5507 1.26027H6.45159ZM3.25562 18.7416H13.9981L14.6102 4.46754H2.71137L3.25562 18.7416ZM8.30128 6.19637C8.38417 6.16848 8.47202 6.15845 8.55906 6.16693C8.6461 6.15845 8.73394 6.16848 8.81683 6.19637C8.89972 6.22426 8.97576 6.26937 9.03998 6.32874C9.10419 6.3881 9.15511 6.46039 9.1894 6.54084C9.22369 6.62129 9.24058 6.70808 9.23894 6.79552V17.2346C9.22663 17.4065 9.14966 17.5674 9.02351 17.6848C8.89737 17.8022 8.73141 17.8675 8.55906 17.8675C8.3867 17.8675 8.22075 17.8022 8.0946 17.6848C7.96845 17.5674 7.89148 17.4065 7.87917 17.2346V6.79552C7.87754 6.70808 7.89442 6.62129 7.92871 6.54084C7.963 6.46039 8.01392 6.3881 8.07813 6.32874C8.14235 6.26937 8.21839 6.22426 8.30128 6.19637ZM5.70343 6.16697C5.61639 6.15849 5.52854 6.16853 5.44565 6.19641C5.36277 6.2243 5.28672 6.26941 5.22251 6.32878C5.15829 6.38815 5.10737 6.46043 5.07308 6.54088C5.03879 6.62133 5.02191 6.70812 5.02355 6.79556V17.2346C5.03585 17.4065 5.11282 17.5674 5.23897 17.6848C5.36512 17.8023 5.53107 17.8676 5.70343 17.8676C5.87578 17.8676 6.04174 17.8023 6.16789 17.6848C6.29403 17.5674 6.37101 17.4065 6.38331 17.2346V6.79556C6.38495 6.70812 6.36807 6.62133 6.33378 6.54088C6.29949 6.46043 6.24856 6.38815 6.18435 6.32878C6.12014 6.26941 6.04409 6.2243 5.9612 6.19641C5.87832 6.16853 5.79047 6.15849 5.70343 6.16697ZM11.2269 6.19641C11.3098 6.16853 11.3976 6.15849 11.4847 6.16697C11.658 6.16107 11.8266 6.22379 11.9539 6.34148C12.0812 6.45918 12.1569 6.62235 12.1646 6.79556V17.2346C12.1523 17.4065 12.0753 17.5674 11.9491 17.6848C11.823 17.8023 11.657 17.8676 11.4847 17.8676C11.3123 17.8676 11.1464 17.8023 11.0202 17.6848C10.8941 17.5674 10.8171 17.4065 10.8048 17.2346V6.79556C10.8032 6.70812 10.82 6.62133 10.8543 6.54088C10.8886 6.46043 10.9395 6.38815 11.0038 6.32878C11.068 6.26941 11.144 6.2243 11.2269 6.19641Z" fill="#4B5767"/>
</svg>
