<svg width="76" height="76" viewBox="0 0 76 76" fill="none" xmlns="http://www.w3.org/2000/svg">
<path d="M66.4574 25.3281L41.4234 39.5571C41.4234 39.5571 39.6794 40.9761 38.6034 40.9761C37.5274 40.9761 35.6654 39.5571 35.6654 39.5571L10.4574 25.3281V50.0541C10.4399 52.0063 11.1128 53.9019 12.3574 55.4061C12.9102 56.086 13.6047 56.637 14.3925 57.0208C15.1802 57.4046 16.0423 57.6118 16.9184 57.6281H59.9924C60.8692 57.6124 61.7319 57.4054 62.5204 57.0216C63.3089 56.6378 64.0041 56.0865 64.5574 55.4061C65.8019 53.9019 66.4749 52.0063 66.4574 50.0541V29.8601C66.4574 28.4661 66.4574 25.3281 66.4574 25.3281Z" fill="white"/>
<path d="M10.4567 23.528C10.7668 23.5279 11.0717 23.6078 11.3417 23.76L36.5497 37.989C36.6214 38.0296 36.6903 38.0751 36.7557 38.125C37.3148 38.5632 37.9364 38.9151 38.5997 39.169C39.2121 38.9228 39.782 38.582 40.2887 38.159C40.3653 38.0967 40.4469 38.0408 40.5327 37.992L65.5627 23.765C65.8365 23.6084 66.1467 23.5264 66.4621 23.5274C66.7775 23.5283 67.0872 23.6121 67.36 23.7704C67.6329 23.9287 67.8593 24.1559 68.0167 24.4293C68.1741 24.7027 68.2569 25.0126 68.2567 25.328V50.0541C68.2801 52.4351 67.4552 54.7467 65.9297 56.5751C65.2056 57.4518 64.2999 58.1609 63.2751 58.6534C62.2502 59.146 61.1307 59.4103 59.9937 59.428H16.9177C15.7808 59.41 14.6612 59.1455 13.6364 58.6528C12.6116 58.1601 11.7058 57.4508 10.9817 56.574C9.45727 54.746 8.6331 52.4352 8.65675 50.055V25.328C8.65675 24.8507 8.84639 24.3928 9.18395 24.0553C9.52152 23.7177 9.97936 23.528 10.4567 23.528ZM34.6817 41.069L12.2567 28.413V50.0541C12.241 51.5763 12.759 53.056 13.7207 54.236C14.1049 54.7195 14.5905 55.1126 15.1432 55.3877C15.696 55.6628 16.3025 55.8131 16.9197 55.828H59.9917C60.609 55.8138 61.2155 55.664 61.7685 55.3895C62.3214 55.1149 62.8073 54.7222 63.1917 54.239C64.1546 53.058 64.673 51.5768 64.6567 50.053V28.428L42.4307 41.054C42.0887 41.3183 41.7335 41.5653 41.3667 41.794C40.5536 42.3698 39.5969 42.7093 38.6027 42.775C37.6048 42.7059 36.6428 42.3747 35.8137 41.815C35.2977 41.51 34.8747 41.21 34.6817 41.069Z" fill="#1A8CFF"/>
<path d="M34.9089 39.427C34.9089 39.427 37.6489 41.08 38.5989 41.08C39.5489 41.08 42.2259 39.427 42.2259 39.427L65.5789 25.827C65.9796 25.5425 66.2658 25.1244 66.386 24.6479C66.5063 24.1713 66.4527 23.6676 66.2349 23.227C65.9069 22.5743 65.4708 21.982 64.9449 21.475C63.697 20.2835 62.0363 19.6212 60.3109 19.627H16.5909C14.8655 19.6249 13.2063 20.2908 11.9609 21.485C11.4351 21.9919 10.9989 22.5843 10.6709 23.237C10.4532 23.6776 10.3996 24.1813 10.5198 24.6579C10.64 25.1344 10.9262 25.5525 11.3269 25.837L34.9089 39.427Z" fill="white"/>
<path d="M38.6001 42.8822C37.5242 42.7897 36.4866 42.438 35.5761 41.8572C34.7871 41.4522 34.1121 41.0502 33.9971 40.9812L10.4241 27.3932C10.3687 27.3627 10.315 27.3294 10.2631 27.2932C9.51921 26.7583 8.98936 25.9766 8.76795 25.0875C8.54654 24.1984 8.64795 23.2596 9.05412 22.4382V22.4312C9.47272 21.5967 10.03 20.8392 10.7021 20.1912C12.2817 18.6661 14.3944 17.8178 16.5901 17.8272H60.3111C62.5058 17.8187 64.6172 18.6669 66.1961 20.1912C66.8679 20.838 67.4251 21.5941 67.8441 22.4272V22.4352C68.2492 23.2561 68.35 24.1941 68.1287 25.0823C67.9073 25.9705 67.3781 26.7515 66.6351 27.2862C66.5855 27.3222 66.5341 27.3555 66.4811 27.3862L43.1501 40.9742C43.0221 41.0522 42.3681 41.4492 41.6051 41.8502C40.7039 42.4368 39.6716 42.7913 38.6001 42.8822ZM12.3391 24.3422L35.8081 37.8692L35.8391 37.8872C36.7126 38.4326 37.6361 38.8934 38.5971 39.2632C39.5332 38.8951 40.4317 38.4376 41.2801 37.8972L41.3201 37.8732L64.5611 24.3432C64.6022 24.3064 64.6303 24.2574 64.6415 24.2034C64.6526 24.1494 64.6462 24.0933 64.6231 24.0432C64.3867 23.5742 64.0726 23.1485 63.6941 22.7842C62.7819 21.914 61.5698 21.4281 60.3091 21.4272H16.5911C15.3318 21.4272 14.1206 21.9112 13.2081 22.7792C12.8297 23.1435 12.5156 23.5692 12.2791 24.0382C12.2549 24.0886 12.2476 24.1454 12.2584 24.2002C12.2692 24.2551 12.2976 24.3049 12.3391 24.3422Z" fill="#1A8CFF"/>
</svg>
