<svg width="15" height="21" viewBox="0 0 15 21" fill="none" xmlns="http://www.w3.org/2000/svg">
<path d="M13.4918 7.74417H12.4213V5.35381C12.4322 4.70004 12.3128 4.05065 12.0701 3.44349C11.8274 2.83633 11.4663 2.28355 11.0079 1.81738C10.5494 1.3512 10.0027 0.980955 9.39964 0.728225C8.7966 0.475495 8.14928 0.345337 7.49542 0.345337C6.84156 0.345337 6.19425 0.475495 5.59121 0.728225C4.98817 0.980955 4.44147 1.3512 3.98298 1.81738C3.5245 2.28355 3.16341 2.83633 2.92075 3.44349C2.67808 4.05065 2.55869 4.70004 2.56956 5.35381V7.74417H1.49909C1.10016 7.75172 0.720015 7.91502 0.439892 8.19916C0.159769 8.48329 0.00188561 8.86572 0 9.26471V18.8244C0.00188367 19.2235 0.159736 19.6059 0.43985 19.8901C0.719964 20.1743 1.10013 20.3377 1.49909 20.3453H13.4918C13.8907 20.3377 14.2709 20.1743 14.551 19.8901C14.8311 19.6059 14.989 19.2235 14.9908 18.8244V9.2637C14.989 8.8647 14.8311 8.48227 14.551 8.19813C14.2708 7.914 13.8907 7.7507 13.4918 7.74314M3.85468 5.35279C3.84658 4.86952 3.93478 4.38948 4.11411 3.94065C4.29345 3.49183 4.56035 3.08319 4.89924 2.73857C5.23813 2.39395 5.64223 2.12025 6.08799 1.93342C6.53375 1.74659 7.01226 1.65037 7.49559 1.65037C7.97892 1.65037 8.45742 1.74659 8.90318 1.93342C9.34894 2.12025 9.75304 2.39395 10.0919 2.73857C10.4308 3.08319 10.6977 3.49183 10.8771 3.94065C11.0564 4.38948 11.1446 4.86952 11.1365 5.35279V7.74314H3.85468V5.35279ZM13.7064 18.8234C13.71 18.8773 13.692 18.9305 13.6565 18.9712C13.621 19.0119 13.5708 19.0369 13.517 19.0408C13.5086 19.0415 13.5001 19.0415 13.4918 19.0408H1.49909C1.44531 19.0435 1.39262 19.0249 1.35249 18.9889C1.31236 18.953 1.28804 18.9027 1.28478 18.849C1.28408 18.8406 1.28408 18.8322 1.28478 18.8238V9.2637C1.28123 9.20973 1.2992 9.15656 1.33477 9.11581C1.37034 9.07507 1.4206 9.05009 1.47455 9.04633H13.4918C13.5456 9.04354 13.5985 9.06217 13.6387 9.09817C13.6789 9.13417 13.7032 9.18461 13.7064 9.23848C13.707 9.24676 13.707 9.25507 13.7064 9.26335V18.8234Z" fill="#005277"/>
<path d="M7.49683 12.2643C7.20439 12.2699 6.92229 12.3735 6.69569 12.5585C6.46909 12.7434 6.31108 12.999 6.24694 13.2844C6.1828 13.5697 6.21626 13.8684 6.34193 14.1325C6.4676 14.3966 6.67822 14.6109 6.94011 14.7412V15.9578C6.93827 16.0321 6.95134 16.106 6.9785 16.1752C7.00566 16.2444 7.04638 16.3074 7.09828 16.3606C7.15017 16.4138 7.21217 16.4561 7.28065 16.4849C7.34912 16.5138 7.42268 16.5286 7.497 16.5286C7.57131 16.5286 7.64487 16.5138 7.71334 16.4849C7.78182 16.4561 7.84382 16.4138 7.89571 16.3606C7.94761 16.3074 7.98833 16.2444 8.01549 16.1752C8.04265 16.106 8.05572 16.0321 8.05388 15.9578V14.7412C8.36188 14.5872 8.597 14.3184 8.70854 13.9926C8.82008 13.6668 8.7991 13.3103 8.6501 12.9999C8.5468 12.7811 8.38373 12.5959 8.17973 12.4659C7.97573 12.3358 7.73911 12.266 7.49716 12.2646" fill="#005277"/>
</svg>
