<svg width="22" height="23" viewBox="0 0 22 23" fill="none" xmlns="http://www.w3.org/2000/svg">
<path fill-rule="evenodd" clip-rule="evenodd" d="M2.01953 1.36523C1.17708 1.36523 0.494141 2.04817 0.494141 2.89062V20.8516C0.494141 21.694 1.17708 22.377 2.01953 22.377H19.9805C20.8229 22.377 21.5059 21.694 21.5059 20.8516V2.89062C21.5059 2.04817 20.8229 1.36523 19.9805 1.36523H2.01953ZM0 2.89062C0 1.77527 0.904175 0.871094 2.01953 0.871094H19.9805C21.0958 0.871094 22 1.77527 22 2.89062V20.8516C22 21.9669 21.0958 22.8711 19.9805 22.8711H2.01953C0.904175 22.8711 0 21.9669 0 20.8516V2.89062Z" fill="#4B5767"/>
<path fill-rule="evenodd" clip-rule="evenodd" d="M8.5571 3.17236H2.3043V10.5247H9.66121V3.17236H8.5571ZM8.5571 9.42127H3.40784V4.27521H8.5571V9.42127ZM7.19365 5.61369H4.74212V8.06408H7.19365V5.61369ZM12.3418 3.17242H18.5946H19.6987V10.5248H12.3418V3.17242ZM13.4454 9.42133H18.5946V4.27527H13.4454V9.42133ZM17.2312 5.61374H14.7797V8.06414H17.2312V5.61374ZM2.30429 13.213H8.55709H9.6612V20.5654H2.30429V13.213ZM3.40783 19.4619H8.55709V14.3159H3.40783V19.4619ZM7.19364 15.6544H4.74211V18.1048H7.19364V15.6544ZM14.7104 13.1406H13.5057V14.3658H14.7104H14.7315H15.9362V13.1406H14.7315H14.7104ZM12.2789 17.9001V20.3505H14.7304V17.9001H12.2789ZM13.5047 14.3678H12.2789V15.593H13.5047V14.3678ZM13.5057 15.6007H14.7315V16.8259H13.5057V15.6007ZM15.9802 15.5945H14.7544V16.8197H15.9802V15.5945ZM15.9812 15.5947H17.207V16.8199H15.9812V15.5947ZM17.207 16.8402H15.9812V18.0654H17.207V16.8402ZM19.6553 19.1239H18.4313V17.9004H19.6553V19.1239ZM18.4312 20.3506H19.6553V19.1271L18.4312 19.1271V20.3506ZM18.4285 20.3505H17.2045V19.1271H18.4285V20.3505ZM13.5047 13.1408H12.2789V14.366H13.5047V13.1408ZM17.1923 14.3678H18.418V15.593H17.1923V14.3678ZM19.6448 14.3678H18.4191V15.593H19.6448V14.3678ZM18.4191 13.1407H19.6448V14.3659H18.4191V13.1407ZM19.6448 15.5945H18.4191V16.8197H19.6448V15.5945Z" fill="#4B5767"/>
</svg>
