<svg width="20" height="21" viewBox="0 0 20 21" fill="none" xmlns="http://www.w3.org/2000/svg">
<path d="M10 1.04748C8.21992 1.04736 6.47977 1.57511 4.99963 2.56398C3.51949 3.55285 2.36582 4.95843 1.68453 6.60298C1.00324 8.24753 0.824916 10.0572 1.17212 11.8031C1.51932 13.549 2.37645 15.1527 3.63511 16.4114C4.89378 17.6702 6.49745 18.5274 8.24332 18.8747C9.98919 19.2221 11.7988 19.0439 13.4434 18.3627C15.088 17.6815 16.4937 16.5279 17.4827 15.0479C18.4716 13.5678 18.9995 11.8277 18.9995 10.0476C18.9969 7.66153 18.0479 5.37393 16.3608 3.68667C14.6736 1.9994 12.3861 1.05026 10 1.04748ZM10 0.0476074C11.9778 0.0476074 13.9112 0.634097 15.5557 1.73291C17.2002 2.83172 18.4819 4.39351 19.2388 6.22077C19.9957 8.04803 20.1937 10.0587 19.8078 11.9985C19.422 13.9383 18.4696 15.7201 17.0711 17.1187C15.6725 18.5172 13.8907 19.4696 11.9509 19.8555C10.0111 20.2413 8.00043 20.0433 6.17316 19.2864C4.3459 18.5295 2.78412 17.2478 1.6853 15.6033C0.58649 13.9588 0 12.0254 0 10.0476C0 7.39544 1.05357 4.8519 2.92893 2.97654C4.8043 1.10118 7.34783 0.0476074 10 0.0476074Z" fill="#005277"/>
<path d="M10.2099 3.91288C9.48111 3.87338 8.75693 4.05088 8.12898 4.42294C7.50102 4.79501 6.9975 5.34492 6.68208 6.00315C6.36665 6.66138 6.2535 7.39836 6.35691 8.1209C6.46033 8.84343 6.77568 9.51908 7.26309 10.0624C7.75049 10.6057 8.38806 10.9923 9.09517 11.1733C9.80228 11.3542 10.5472 11.3215 11.2357 11.0791C11.9242 10.8367 12.5253 10.3957 12.9631 9.81164C13.4009 9.22762 13.6557 8.52689 13.6953 7.79806C13.699 7.73132 13.7009 7.66458 13.7009 7.59784C13.7259 6.64644 13.3724 5.72397 12.7179 5.03305C12.0633 4.34213 11.1613 3.93924 10.2099 3.91288Z" fill="#005277"/>
<path d="M3.16956 16.201V15.7746C3.16956 14.6035 5.10318 12.3226 7.15732 12.3226H12.8624C14.9172 12.3226 16.8502 14.6035 16.8502 15.7746V16.201C15.9973 17.2265 14.9343 18.0571 13.7329 18.6366C12.5316 19.2162 11.2198 19.5311 9.88628 19.5603C8.58471 19.5493 7.30287 19.241 6.13873 18.6588C4.9746 18.0765 3.95899 17.2359 3.16956 16.201Z" fill="#005277"/>
</svg>
