<svg width="19" height="22" viewBox="0 0 19 22" fill="none" xmlns="http://www.w3.org/2000/svg">
<path d="M16.4404 6.24219H7.67236V7.02919H16.4404V6.24219Z" fill="#3C93C9"/>
<path d="M16.4347 9.22198H2.52771V10.009H16.4347V9.22198Z" fill="#3C93C9"/>
<path d="M12.2416 3.26221H7.66064V4.04921H12.2416V3.26221Z" fill="#3C93C9"/>
<path d="M16.4349 12.2021H2.69189V12.9891H16.4349V12.2021Z" fill="#3C93C9"/>
<path d="M16.4349 15.1821H2.69189V15.9691H16.4349V15.1821Z" fill="#3C93C9"/>
<path d="M16.4349 18.1611H2.69189V18.9481H16.4349V18.1611Z" fill="#3C93C9"/>
<path d="M6.70727 2.68311H2.55127V7.04911H6.70727V2.68311Z" fill="#3C93C9"/>
<path d="M0.821738 0.828H13.9697V5.283H18.2097V22H18.9687V5.031L14.2257 0H0.0317383V21.979L18.9687 22V21.166L0.821738 21.115V0.828ZM14.7277 1.728L17.3487 4.459H14.7317L14.7277 1.728Z" fill="#3C93C9"/>
</svg>
