<svg width="280" height="70" viewBox="0 0 280 70" fill="none" xmlns="http://www.w3.org/2000/svg">
<path d="M86.1454 40.1116C86.6345 41.0495 86.8897 42.0918 86.8894 43.1496C86.8951 44.1332 86.6906 45.1066 86.2896 46.0048C85.8887 46.903 85.3005 47.7051 84.5644 48.3576C82.9223 49.8422 80.7622 50.6217 78.5504 50.5276C77.8229 50.5313 77.0966 50.469 76.3804 50.3416C75.5307 50.1512 74.6923 49.9131 73.8694 49.6286C73.0874 49.3376 72.2769 49.1298 71.4514 49.0086C71.31 48.9994 71.1682 49.0194 71.0348 49.0674C70.9015 49.1154 70.7795 49.1903 70.6764 49.2876C70.419 49.6407 70.2684 50.0603 70.2424 50.4966H69.5294V41.4146H70.2424C70.4563 42.9064 70.9173 44.3522 71.6064 45.6926C72.2609 46.6971 73.1701 47.5101 74.2414 48.0486C75.4372 48.6717 76.768 48.9911 78.1164 48.9786C79.5267 49.0563 80.9133 48.5911 81.9914 47.6786C82.4304 47.3012 82.7843 46.8349 83.0294 46.3104C83.2746 45.786 83.4054 45.2154 83.4134 44.6366C83.3958 43.943 83.2153 43.2634 82.8864 42.6526C82.4521 41.9315 81.8839 41.3001 81.2124 40.7926C79.8741 39.8906 78.4873 39.0627 77.0584 38.3126C75.3804 37.4089 73.7648 36.3939 72.2224 35.2746C71.328 34.6022 70.5881 33.7459 70.0524 32.7636C69.553 31.8407 69.2969 30.8058 69.3084 29.7566C69.3084 28.8266 69.5043 27.907 69.8834 27.0577C70.2624 26.2085 70.8161 25.4486 71.5084 24.8276C73.0241 23.4304 75.028 22.6845 77.0884 22.7506C78.6406 22.783 80.17 23.1311 81.5834 23.7736C82.0641 24.036 82.5899 24.2056 83.1334 24.2736C83.2867 24.2819 83.4401 24.2587 83.584 24.2054C83.728 24.1521 83.8595 24.0697 83.9704 23.9636C84.2532 23.6163 84.4355 23.1981 84.4974 22.7546H85.2104V31.9606H84.4974C84.3492 30.4865 83.9176 29.0549 83.2264 27.7446C82.6106 26.6895 81.7094 25.8298 80.6264 25.2646C79.5677 24.6625 78.3722 24.3423 77.1544 24.3346C75.9088 24.2873 74.6947 24.7328 73.7754 25.5746C73.3635 25.9214 73.0312 26.3529 72.8012 26.8397C72.5712 27.3265 72.4488 27.8572 72.4424 28.3956C72.4426 29.2067 72.7404 29.9895 73.2794 30.5956C74.0854 31.5876 76.0074 32.8896 79.0454 34.5016C80.8147 35.3949 82.5139 36.4208 84.1284 37.5706C84.9436 38.2936 85.6262 39.1535 86.1454 40.1116ZM105.115 47.3336C103.658 49.2866 102.263 50.2786 100.93 50.2786C100.644 50.2928 100.359 50.2415 100.096 50.1287C99.8324 50.0159 99.5983 49.8445 99.4114 49.6276C98.9644 48.9617 98.7567 48.1638 98.8224 47.3646C97.7198 48.2653 96.56 49.0937 95.3504 49.8446C94.644 50.1815 93.87 50.3526 93.0874 50.3446C92.5154 50.3592 91.9467 50.2536 91.418 50.0347C90.8894 49.8157 90.4126 49.4883 90.0184 49.0736C89.6056 48.6231 89.2862 48.0953 89.0787 47.5206C88.8712 46.9459 88.7797 46.3358 88.8094 45.7256C88.7819 44.93 88.9865 44.1437 89.3984 43.4626C90.0998 42.402 91.0601 41.5378 92.1884 40.9516C94.3079 39.8245 96.5151 38.8708 98.7884 38.0996V37.3866C98.9169 36.0987 98.6231 34.8039 97.9514 33.6976C97.6377 33.3583 97.2523 33.0933 96.8234 32.9217C96.3944 32.7501 95.9325 32.6762 95.4714 32.7056C94.7607 32.6617 94.0607 32.8951 93.5184 33.3566C93.2909 33.54 93.1064 33.7711 92.9779 34.0335C92.8494 34.296 92.7799 34.5834 92.7744 34.8756L92.8054 36.0226C92.8331 36.5297 92.6669 37.0285 92.3404 37.4176C92.1877 37.5842 92.0003 37.7154 91.7914 37.8018C91.5825 37.8881 91.3572 37.9277 91.1314 37.9176C90.9101 37.9276 90.6895 37.8879 90.4856 37.8014C90.2817 37.7148 90.0999 37.5837 89.9534 37.4176C89.6269 37.0285 89.4606 36.5297 89.4884 36.0226C89.5186 35.4069 89.6911 34.8065 89.9923 34.2687C90.2935 33.7308 90.7152 33.2701 91.2244 32.9226C92.6271 31.9135 94.3357 31.4206 96.0604 31.5276C97.4079 31.4823 98.7468 31.7586 99.9664 32.3336C100.741 32.7398 101.345 33.4109 101.666 34.2246C101.972 35.3444 102.087 36.5076 102.007 37.6656V43.7416C101.982 44.7861 102.013 45.8313 102.1 46.8726C102.13 47.1547 102.237 47.423 102.41 47.6476C102.557 47.7724 102.745 47.8386 102.937 47.8336C103.131 47.8441 103.324 47.8012 103.495 47.7096C104.068 47.2869 104.597 46.8093 105.076 46.2836V47.3376L105.115 47.3336ZM98.8234 39.2436C97.5158 39.7143 96.2418 40.2735 95.0104 40.9176C94.158 41.3552 93.4082 41.9687 92.8104 42.7176C92.3838 43.3142 92.1561 44.0301 92.1594 44.7636C92.1315 45.617 92.431 46.4487 92.9964 47.0886C93.2301 47.3737 93.5231 47.6046 93.855 47.7651C94.1869 47.9257 94.5497 48.0122 94.9184 48.0186C95.9104 48.0186 97.2124 47.3676 98.8244 46.0656L98.8234 39.2436ZM128.55 47.7676C128.463 48.1673 128.231 48.5206 127.899 48.7596C127.363 49.0997 126.733 49.2624 126.099 49.2246H125.727V49.9376H134.561V49.2246C133.966 49.2695 133.369 49.1629 132.825 48.9146C132.507 48.7585 132.255 48.495 132.112 48.1706C131.909 47.4237 131.826 46.6495 131.864 45.8766V38.1586C131.914 36.9546 131.767 35.7506 131.43 34.5936C131.114 33.6368 130.507 32.8024 129.694 32.2066C128.942 31.7065 128.056 31.4471 127.152 31.4626C126.154 31.4668 125.173 31.7227 124.3 32.2066C123.002 33.034 121.85 34.071 120.89 35.2756C120.689 34.1708 120.121 33.1662 119.278 32.4236C118.464 31.7643 117.443 31.413 116.395 31.4316C115.704 31.4324 115.02 31.5682 114.38 31.8316C113.693 32.1115 113.055 32.4987 112.489 32.9786C112.241 33.1646 111.497 33.9086 110.195 35.2416V31.4316H109.327L103.933 33.6316L104.212 34.3446C104.627 34.1786 105.066 34.0842 105.512 34.0656C105.802 34.0524 106.087 34.14 106.318 34.3136C106.554 34.5603 106.706 34.8753 106.752 35.2136C106.917 36.4775 106.979 37.7526 106.938 39.0266V45.8766C106.981 46.6292 106.897 47.3836 106.69 48.1086C106.548 48.4662 106.285 48.7624 105.946 48.9456C105.397 49.172 104.803 49.2675 104.21 49.2246V49.9376H113.075V49.2246C112.412 49.2772 111.745 49.1819 111.122 48.9456C110.802 48.7637 110.551 48.4801 110.409 48.1396C110.199 47.3941 110.116 46.6187 110.161 45.8456V36.2366C110.86 35.433 111.714 34.7792 112.672 34.3146C113.307 33.9578 114.021 33.766 114.749 33.7566C115.225 33.7397 115.696 33.8448 116.12 34.0619C116.543 34.2789 116.904 34.6007 117.167 34.9966C117.676 35.969 117.901 37.0644 117.818 38.1586V45.8766C117.846 46.5187 117.815 47.1621 117.725 47.7986C117.597 48.2292 117.323 48.6018 116.95 48.8526C116.31 49.1427 115.604 49.2603 114.904 49.1936V49.9016H123.955V49.1886C123.299 49.2391 122.64 49.1329 122.033 48.8786C121.699 48.7242 121.426 48.4623 121.258 48.1346C121.071 47.3851 120.998 46.6118 121.041 45.8406V37.2856L121.01 36.4486L121.041 36.2316C121.792 35.4717 122.648 34.8243 123.583 34.3096C124.227 33.9794 124.937 33.7992 125.66 33.7826C126.143 33.7477 126.625 33.8447 127.057 34.0631C127.488 34.2816 127.852 34.6132 128.109 35.0226C128.529 35.9994 128.709 37.062 128.636 38.1226V45.8406C128.666 46.4842 128.637 47.1292 128.549 47.7676H128.55ZM139.368 48.8836V54.3396C139.309 55.1213 139.383 55.9073 139.585 56.6646C139.749 57.0103 140.021 57.2932 140.36 57.4706C141.006 57.6996 141.692 57.7945 142.375 57.7496V58.4626H132.983V57.7496H133.483C134.117 57.7748 134.747 57.6371 135.312 57.3496C135.57 57.1831 135.774 56.9465 135.901 56.6676C136.089 55.8655 136.162 55.041 136.118 54.2186V37.2596C136.149 36.5227 136.097 35.7848 135.963 35.0596C135.88 34.7733 135.704 34.5227 135.463 34.3466C135.187 34.1693 134.862 34.0826 134.533 34.0986C134.117 34.1217 133.708 34.2161 133.324 34.3776L133.076 33.7576L138.593 31.5256H139.337V35.7106C140.016 34.4156 140.968 33.2838 142.127 32.3936C142.991 31.7863 144.017 31.4516 145.072 31.4326C145.932 31.4231 146.783 31.6078 147.561 31.9728C148.339 32.3378 149.025 32.8737 149.567 33.5406C151.101 35.4366 151.884 37.8306 151.767 40.2666C151.868 43.0622 150.917 45.794 149.101 47.9226C148.423 48.7192 147.576 49.3549 146.622 49.7838C145.667 50.2128 144.629 50.4241 143.583 50.4026C142.729 50.4263 141.877 50.2907 141.072 50.0026C140.43 49.757 139.849 49.3752 139.368 48.8836ZM139.368 43.5836C139.33 44.5381 139.392 45.4941 139.554 46.4356C139.761 47.2289 140.231 47.9286 140.887 48.4196C141.655 49.0221 142.613 49.33 143.587 49.2876C144.197 49.3053 144.803 49.1766 145.353 48.9124C145.903 48.6481 146.382 48.2559 146.749 47.7686C147.897 46.1314 148.454 44.153 148.33 42.1576C148.477 39.9054 147.842 37.6716 146.53 35.8346C146.187 35.3673 145.739 34.9867 145.222 34.723C144.705 34.4593 144.134 34.3198 143.554 34.3156C142.906 34.3224 142.269 34.4817 141.694 34.7806C140.825 35.3716 140.042 36.0811 139.369 36.8886L139.368 43.5836ZM159.237 48.1096C159.031 47.3846 158.947 46.6302 158.989 45.8776V22.1016H158.121L152.789 24.3016L153.13 24.9836C153.54 24.7983 153.981 24.6931 154.43 24.6736C154.709 24.6701 154.981 24.7571 155.205 24.9216C155.458 25.1811 155.612 25.5213 155.639 25.8826C155.761 27.1186 155.802 28.3612 155.763 29.6026V45.8766C155.803 46.6393 155.719 47.4034 155.515 48.1396C155.393 48.4991 155.138 48.7984 154.802 48.9766C154.268 49.1751 153.698 49.2595 153.128 49.2246V49.9376H161.9V49.2246C161.257 49.2729 160.611 49.1776 160.009 48.9456C159.656 48.7728 159.381 48.4752 159.237 48.1096ZM170.427 50.4656C169.38 50.4726 168.345 50.2517 167.392 49.818C166.439 49.3844 165.592 48.7485 164.909 47.9546C163.314 46.0755 162.494 43.6596 162.615 41.1976C162.615 38.1286 163.39 35.7416 164.971 34.0376C165.714 33.207 166.628 32.547 167.65 32.1029C168.672 31.6588 169.777 31.441 170.891 31.4646C171.811 31.4319 172.727 31.5915 173.581 31.9331C174.435 32.2747 175.208 32.7909 175.851 33.4486C176.51 34.1586 177.019 34.9935 177.349 35.9039C177.679 36.8142 177.824 37.7815 177.773 38.7486H165.405C165.264 40.9998 165.947 43.2253 167.327 45.0096C167.873 45.7069 168.569 46.2724 169.363 46.6642C170.158 47.0559 171.03 47.2639 171.915 47.2726C173.017 47.302 174.097 46.9639 174.984 46.3116C176.008 45.4343 176.761 44.2838 177.154 42.9946L177.774 43.3946C177.476 45.2168 176.646 46.9101 175.387 48.2616C174.775 48.9726 174.012 49.539 173.155 49.92C172.297 50.3009 171.366 50.4879 170.427 50.4656ZM165.374 37.6326H173.681C173.685 36.8098 173.55 35.9923 173.281 35.2146C172.973 34.5075 172.467 33.9047 171.824 33.4786C171.224 33.0873 170.526 32.8725 169.809 32.8586C169.263 32.8658 168.725 32.9819 168.224 33.2001C167.724 33.4184 167.272 33.7344 166.895 34.1296C165.973 35.0691 165.432 36.3175 165.374 37.6326ZM187.351 49.9386H179.013V49.2256C179.784 49.1666 180.523 48.8986 181.152 48.4506C182.113 47.325 182.859 46.0326 183.352 44.6376L192.682 22.8156H193.364L202.601 44.8856C203.044 46.1523 203.728 47.321 204.616 48.3266C205.341 48.8998 206.235 49.2164 207.158 49.2266V49.9396H196.681V49.2266C197.43 49.2591 198.172 49.0762 198.82 48.6996C198.992 48.5752 199.132 48.4121 199.229 48.2236C199.326 48.0352 199.377 47.8265 199.378 47.6146C199.283 46.6665 199.021 45.7429 198.603 44.8866L196.991 41.0736H186.731L184.931 45.2586C184.579 45.9782 184.359 46.7552 184.28 47.5526C184.282 47.7636 184.337 47.9709 184.44 48.1552C184.543 48.3395 184.69 48.4947 184.869 48.6066C185.631 49.0159 186.485 49.2189 187.349 49.1956L187.351 49.9386ZM187.351 39.5856H196.464L191.969 28.8606L187.351 39.5856ZM214.226 50.4656C215.734 50.4736 217.195 49.9463 218.349 48.9776C218.947 48.5134 219.426 47.9151 219.749 47.2311C220.073 46.5472 220.23 45.7967 220.209 45.0406C220.209 42.9326 218.876 41.2276 216.241 39.9256L213.389 38.5306C212.457 38.152 211.621 37.5714 210.94 36.8306C210.525 36.2887 210.307 35.6219 210.32 34.9396C210.333 34.6259 210.414 34.3187 210.559 34.0401C210.704 33.7615 210.908 33.5182 211.157 33.3276C211.776 32.8233 212.561 32.5689 213.357 32.6146C214.442 32.5711 215.504 32.9362 216.333 33.6376C217.33 34.7322 217.996 36.0863 218.255 37.5436H218.906V31.4316H218.255C218.163 31.6622 218.028 31.8728 217.855 32.0516C217.707 32.1479 217.531 32.1916 217.355 32.1756C216.903 32.1287 216.456 32.0352 216.022 31.8966C215.192 31.6156 214.325 31.4589 213.449 31.4316C212.731 31.4007 212.015 31.5168 211.343 31.7727C210.671 32.0285 210.059 32.4188 209.543 32.9196C209.047 33.3948 208.656 33.9684 208.394 34.6037C208.133 35.2389 208.007 35.9218 208.024 36.6086C207.978 37.621 208.285 38.6181 208.892 39.4296C209.949 40.5177 211.214 41.3822 212.612 41.9716C213.977 42.5637 215.25 43.3465 216.394 44.2966C216.701 44.588 216.944 44.9392 217.11 45.3284C217.275 45.7177 217.359 46.1367 217.355 46.5596C217.359 46.9208 217.287 47.2789 217.143 47.6101C216.998 47.9414 216.786 48.2384 216.518 48.4816C215.919 49.0277 215.129 49.317 214.318 49.2876C213.026 49.2776 211.786 48.7792 210.846 47.8926C209.719 46.7805 208.98 45.3347 208.738 43.7696H208.087V50.1546H208.738C208.79 50.0074 208.887 49.8801 209.015 49.7905C209.143 49.7009 209.295 49.6533 209.451 49.6546C209.809 49.6687 210.164 49.7313 210.505 49.8406C211.706 50.2393 212.961 50.4507 214.226 50.4656ZM234.188 45.0406C234.188 42.9326 232.855 41.2276 230.22 39.9256L227.368 38.5306C226.436 38.152 225.6 37.5714 224.919 36.8306C224.504 36.2887 224.286 35.6219 224.299 34.9396C224.312 34.6259 224.393 34.3187 224.538 34.0401C224.683 33.7615 224.887 33.5182 225.136 33.3276C225.755 32.8232 226.54 32.5688 227.336 32.6146C228.421 32.5711 229.483 32.9362 230.312 33.6376C231.309 34.7322 231.975 36.0863 232.234 37.5436H232.885V31.4316H232.234C232.143 31.6622 232.007 31.8728 231.834 32.0516C231.686 32.1479 231.51 32.1916 231.334 32.1756C230.882 32.1287 230.435 32.0352 230.001 31.8966C229.171 31.6156 228.304 31.4589 227.428 31.4316C226.71 31.4007 225.994 31.5168 225.322 31.7727C224.65 32.0285 224.038 32.4188 223.522 32.9196C223.026 33.3948 222.635 33.9684 222.373 34.6037C222.112 35.2389 221.986 35.9218 222.003 36.6086C221.957 37.621 222.264 38.6181 222.871 39.4296C223.928 40.5177 225.194 41.3822 226.591 41.9716C227.956 42.5637 229.229 43.3465 230.373 44.2966C230.68 44.588 230.923 44.9392 231.089 45.3284C231.254 45.7177 231.338 46.1367 231.334 46.5596C231.338 46.9208 231.266 47.2789 231.122 47.6101C230.977 47.9414 230.765 48.2384 230.497 48.4816C229.898 49.0277 229.108 49.317 228.297 49.2876C227.005 49.2776 225.765 48.7792 224.825 47.8926C223.698 46.7805 222.959 45.3347 222.717 43.7696H222.066V50.1546H222.717C222.769 50.0074 222.866 49.8801 222.994 49.7905C223.122 49.7009 223.274 49.6533 223.43 49.6546C223.788 49.6687 224.143 49.7313 224.484 49.8406C225.701 50.2098 226.964 50.408 228.235 50.4296C229.743 50.4376 231.204 49.9103 232.358 48.9416C232.948 48.4799 233.42 47.8863 233.738 47.2086C234.056 46.5308 234.21 45.7888 234.188 45.0406ZM237.908 48.1406C237.776 48.4942 237.523 48.7903 237.195 48.9776C236.629 49.1797 236.028 49.2641 235.428 49.2256V49.9386H244.138V49.2256C243.546 49.2718 242.951 49.1762 242.402 48.9466C242.08 48.7524 241.83 48.4586 241.689 48.1096C241.483 47.3846 241.399 46.6302 241.441 45.8776V31.4936H240.573L235.179 33.6936L235.458 34.4066C235.884 34.2399 236.335 34.1456 236.791 34.1276C237.081 34.1144 237.366 34.202 237.597 34.3756C237.827 34.6139 237.979 34.9168 238.031 35.2436C238.197 36.497 238.259 37.7619 238.217 39.0256V45.9376C238.243 46.6836 238.141 47.4285 237.913 48.1396L237.908 48.1406ZM239.799 26.0706C240.061 26.0792 240.321 26.031 240.562 25.9293C240.802 25.8276 241.018 25.6749 241.194 25.4816C241.563 25.1101 241.775 24.6102 241.783 24.0866C241.792 23.8253 241.744 23.5652 241.642 23.3244C241.54 23.0835 241.388 22.8676 241.194 22.6916C240.916 22.4144 240.561 22.2255 240.176 22.1486C239.79 22.0716 239.391 22.1099 239.027 22.2588C238.663 22.4076 238.351 22.6603 238.13 22.9854C237.909 23.3105 237.789 23.6935 237.784 24.0866C237.776 24.3479 237.824 24.6079 237.926 24.8488C238.027 25.0896 238.18 25.3055 238.373 25.4816C238.557 25.6729 238.779 25.8239 239.025 25.9251C239.27 26.0264 239.534 26.0765 239.799 26.0706ZM252.942 39.9266L250.09 38.5316C249.158 38.153 248.322 37.5724 247.641 36.8316C247.226 36.2897 247.008 35.6229 247.021 34.9406C247.034 34.6269 247.115 34.3197 247.26 34.0411C247.405 33.7625 247.609 33.5192 247.858 33.3286C248.477 32.8243 249.262 32.5699 250.058 32.6156C251.143 32.572 252.205 32.9371 253.034 33.6386C254.031 34.7332 254.697 36.0873 254.956 37.5446H255.607V31.4316H254.956C254.865 31.6622 254.729 31.8728 254.556 32.0516C254.408 32.1479 254.232 32.1916 254.056 32.1756C253.604 32.1287 253.157 32.0352 252.723 31.8966C251.893 31.6156 251.026 31.4589 250.15 31.4316C249.432 31.4007 248.716 31.5168 248.044 31.7727C247.372 32.0285 246.76 32.4188 246.244 32.9196C245.748 33.3948 245.357 33.9684 245.095 34.6037C244.834 35.2389 244.708 35.9218 244.725 36.6086C244.679 37.621 244.986 38.6181 245.593 39.4296C246.65 40.5177 247.915 41.3822 249.313 41.9716C250.678 42.5637 251.951 43.3465 253.095 44.2966C253.402 44.588 253.645 44.9392 253.81 45.3284C253.976 45.7177 254.059 46.1367 254.056 46.5596C254.06 46.9208 253.988 47.2789 253.844 47.6101C253.699 47.9414 253.487 48.2384 253.219 48.4816C252.62 49.0277 251.83 49.317 251.019 49.2876C249.727 49.2776 248.487 48.7792 247.547 47.8926C246.42 46.7805 245.681 45.3347 245.439 43.7696H244.788V50.1546H245.439C245.491 50.0074 245.588 49.8801 245.716 49.7905C245.844 49.7009 245.996 49.6533 246.152 49.6546C246.511 49.6687 246.865 49.7313 247.206 49.8406C248.423 50.2098 249.686 50.408 250.957 50.4296C252.465 50.4376 253.926 49.9103 255.08 48.9416C255.678 48.4774 256.157 47.8791 256.48 47.1951C256.804 46.5112 256.961 45.7607 256.94 45.0046C256.913 42.9316 255.577 41.2276 252.942 39.9266ZM266.209 47.5516C265.846 47.8082 265.414 47.9478 264.969 47.9516C264.723 47.957 264.48 47.9036 264.259 47.7957C264.038 47.6879 263.845 47.5287 263.698 47.3316C263.283 46.6202 263.108 45.7942 263.198 44.9756V33.3536H267.383V31.9896H263.198V26.1016H262.578C262.223 27.0362 261.809 27.9473 261.338 28.8296C260.778 29.7317 260.101 30.5553 259.323 31.2786C258.685 31.8938 257.939 32.3875 257.123 32.7356V33.3866H259.975V45.4446C259.916 46.4125 260.052 47.3825 260.375 48.2966C260.642 48.8916 261.086 49.3897 261.646 49.7226C262.177 50.0522 262.789 50.2255 263.413 50.2226C264.356 50.2082 265.265 49.8688 265.986 49.2616C266.897 48.5046 267.574 47.5049 267.939 46.3786H267.164C266.959 46.8481 266.631 47.2532 266.213 47.5506L266.209 47.5516ZM267.945 26.2256L267.821 27.4966H268.038C268.066 27.2355 268.187 26.9932 268.379 26.8146C268.632 26.6657 268.925 26.6006 269.216 26.6286H269.681V30.2556C269.681 30.5966 269.65 30.8136 269.557 30.9066C269.495 30.9996 269.309 31.0616 269.03 31.0926V31.3096H271.386V31.0926C271.107 31.0926 270.921 31.0306 270.859 30.9376C270.766 30.8446 270.735 30.6276 270.735 30.2556V26.6276H271.2C271.516 26.5977 271.833 26.6741 272.1 26.8446C272.292 27.024 272.413 27.2658 272.441 27.5266H272.658L272.534 26.2556H267.946L267.945 26.2256ZM279.352 26.7256C279.366 26.6817 279.39 26.6417 279.422 26.6093C279.455 26.5768 279.494 26.5529 279.538 26.5396C279.689 26.4948 279.846 26.4739 280.003 26.4776V26.2606H278.267L276.593 29.8606L274.893 26.2606H273.093V26.4776C273.251 26.4682 273.409 26.4892 273.558 26.5396C273.641 26.576 273.708 26.6424 273.744 26.7256C273.794 26.9178 273.814 27.1163 273.806 27.3146V30.2286C273.813 30.4166 273.792 30.6046 273.744 30.7866C273.731 30.8304 273.707 30.8703 273.675 30.9028C273.642 30.9352 273.602 30.9592 273.558 30.9726C273.408 31.0173 273.251 31.0383 273.093 31.0346V31.2516H275.013V31.0346H274.796C274.67 31.0344 274.544 31.0135 274.424 30.9726C274.355 30.9274 274.301 30.8626 274.269 30.7866C274.222 30.6046 274.201 30.4166 274.207 30.2286V27.2166L276.129 31.2776H276.315L278.237 27.1546V30.2546C278.247 30.4325 278.226 30.6108 278.175 30.7816C278.162 30.8254 278.138 30.8653 278.106 30.8978C278.073 30.9302 278.033 30.9542 277.989 30.9676C277.827 31.0146 277.658 31.0356 277.489 31.0296V31.2466H279.969V31.0296C279.659 30.9986 279.469 30.9676 279.38 30.8746C279.291 30.7816 279.256 30.5646 279.256 30.2236V27.3096C279.321 27.0016 279.321 26.8136 279.352 26.7206V26.7256Z" fill="white"/>
<path d="M151.207 58.3357L149.907 54.1817H149.163L147.892 58.2427L146.807 54.1817H145.877L147.458 59.6377H148.202L149.502 55.5147L150.835 59.6377H151.579L153.16 54.1817H152.23L151.207 58.3357ZM159.452 58.3357L158.152 54.1817H157.408L156.137 58.2427L155.052 54.1817H154.122L155.703 59.6377H156.447L157.747 55.5147L159.08 59.6377H159.824L161.405 54.1817H160.475L159.452 58.3357ZM167.697 58.3357L166.397 54.1817H165.653L164.382 58.2427L163.297 54.1817H162.367L163.948 59.6377H164.692L165.992 55.5147L167.325 59.6377H168.069L169.65 54.1817H168.72L167.697 58.3357ZM171.107 58.5837C170.948 58.5769 170.792 58.6325 170.673 58.7387C170.573 58.8478 170.518 58.9906 170.518 59.1387C170.524 59.2857 170.578 59.4266 170.673 59.5387C170.796 59.6389 170.949 59.6937 171.107 59.6937C171.266 59.6937 171.419 59.6389 171.541 59.5387C171.641 59.4283 171.697 59.2846 171.697 59.1357C171.697 58.9867 171.641 58.843 171.541 58.7327C171.486 58.6759 171.417 58.6332 171.342 58.6082C171.266 58.5831 171.186 58.5764 171.107 58.5887V58.5837ZM176.997 56.8477C176.646 56.668 176.27 56.5426 175.881 56.4757C175.543 56.4228 175.217 56.3071 174.92 56.1347C174.833 56.0842 174.761 56.0111 174.712 55.9231C174.663 55.8351 174.639 55.7354 174.641 55.6347C174.638 55.5215 174.662 55.4091 174.71 55.3068C174.759 55.2045 174.831 55.115 174.92 55.0457C175.156 54.8829 175.441 54.8063 175.726 54.8287C176.021 54.8158 176.309 54.9156 176.532 55.1077C176.63 55.1854 176.709 55.2844 176.763 55.3973C176.817 55.5101 176.844 55.6337 176.842 55.7587H177.772C177.78 55.5245 177.73 55.292 177.627 55.0813C177.525 54.8706 177.372 54.6882 177.183 54.5497C176.756 54.2268 176.23 54.0624 175.695 54.0847C175.171 54.0671 174.656 54.2314 174.238 54.5497C174.066 54.6803 173.926 54.8489 173.829 55.0425C173.732 55.236 173.681 55.4493 173.68 55.6657C173.671 55.9067 173.736 56.1447 173.866 56.3477C174.023 56.5684 174.238 56.7414 174.486 56.8477C174.843 57.0136 175.217 57.1384 175.602 57.2197C175.957 57.2669 176.296 57.3941 176.594 57.5917C176.686 57.6587 176.76 57.7477 176.809 57.8506C176.858 57.9535 176.88 58.067 176.873 58.1807C176.881 58.2936 176.855 58.4063 176.8 58.5052C176.745 58.6042 176.663 58.6852 176.563 58.7387C176.314 58.8975 176.021 58.9735 175.726 58.9557C175.394 58.9679 175.067 58.8698 174.796 58.6767C174.678 58.5927 174.582 58.4809 174.517 58.3512C174.453 58.2214 174.421 58.0777 174.424 57.9327H173.494C173.496 58.2537 173.593 58.567 173.773 58.8327C173.971 59.1129 174.238 59.3372 174.548 59.4837C174.91 59.6386 175.302 59.7127 175.695 59.7007C176.235 59.7178 176.766 59.566 177.214 59.2667C177.405 59.137 177.559 58.9607 177.662 58.7544C177.766 58.5482 177.814 58.319 177.803 58.0887C177.813 57.8238 177.737 57.563 177.586 57.3447C177.441 57.1268 177.236 56.9548 176.996 56.8487L176.997 56.8477ZM183.723 58.3357C183.706 58.7368 183.77 59.1373 183.909 59.5137V59.6067H182.948C182.875 59.4292 182.833 59.2404 182.824 59.0487C182.625 59.2607 182.385 59.4303 182.119 59.5475C181.853 59.6647 181.565 59.727 181.274 59.7307C180.787 59.7485 180.312 59.5825 179.941 59.2657C179.775 59.1248 179.641 58.949 179.55 58.7508C179.459 58.5526 179.413 58.3368 179.414 58.1187C179.407 57.8604 179.463 57.6043 179.576 57.3722C179.689 57.14 179.857 56.9388 180.065 56.7857C180.611 56.4421 181.251 56.2794 181.894 56.3207H182.794V55.8887C182.807 55.6036 182.707 55.3251 182.515 55.1137C182.273 54.9117 181.962 54.8117 181.647 54.8347C181.349 54.8268 181.056 54.9136 180.81 55.0827C180.707 55.1502 180.622 55.2421 180.563 55.3502C180.503 55.4583 180.471 55.5793 180.469 55.7027H179.539C179.542 55.4203 179.641 55.1472 179.818 54.9277C180.02 54.6657 180.287 54.4623 180.593 54.3387C180.934 54.1867 181.305 54.1126 181.678 54.1217C182.214 54.0944 182.742 54.2593 183.166 54.5867C183.342 54.755 183.481 54.9568 183.577 55.1801C183.673 55.4034 183.723 55.6437 183.724 55.8867L183.723 58.3357ZM182.793 56.9717H182.049C180.902 56.9717 180.349 57.3127 180.349 57.9637C180.343 58.0909 180.364 58.218 180.413 58.3359C180.461 58.4538 180.535 58.5596 180.628 58.6457C180.839 58.8144 181.103 58.9024 181.372 58.8937C181.665 58.8952 181.954 58.8204 182.209 58.6767C182.462 58.5556 182.66 58.3459 182.767 58.0877V56.9717H182.793ZM191.503 54.0887C191.147 54.0823 190.794 54.1677 190.48 54.3367C190.202 54.4915 189.959 54.7027 189.767 54.9567C189.629 54.671 189.406 54.4347 189.129 54.2795C188.851 54.1244 188.533 54.0578 188.217 54.0887C187.912 54.0783 187.609 54.137 187.33 54.2605C187.051 54.3839 186.803 54.569 186.605 54.8017L186.574 54.2127H185.706V59.6687H186.636V55.7007C186.733 55.4555 186.905 55.2478 187.128 55.1083C187.352 54.9687 187.614 54.9047 187.876 54.9257C188.035 54.9053 188.195 54.922 188.346 54.9745C188.497 55.027 188.633 55.1138 188.744 55.2281C188.855 55.3424 188.939 55.481 188.987 55.6329C189.036 55.7849 189.048 55.9461 189.023 56.1037V59.6687H189.953V56.0417C189.99 55.8088 190.086 55.5893 190.233 55.4049C190.38 55.2206 190.572 55.0776 190.791 54.99C191.01 54.9024 191.248 54.8733 191.482 54.9055C191.715 54.9377 191.936 55.0302 192.123 55.1737C192.325 55.4159 192.425 55.7271 192.402 56.0417V59.6417H193.332V55.9837C193.301 54.7097 192.681 54.0887 191.503 54.0887ZM199.252 54.8327C199.656 55.436 199.852 56.1542 199.81 56.8787V56.9717C199.843 57.6855 199.647 58.3912 199.252 58.9867C199.074 59.2274 198.84 59.4211 198.57 59.5507C198.299 59.6804 198.002 59.7421 197.702 59.7307C197.415 59.7432 197.128 59.6944 196.861 59.5875C196.593 59.4806 196.352 59.318 196.152 59.1107V61.7457H195.222V54.2137H196.059L196.09 54.8027C196.279 54.5681 196.521 54.3812 196.796 54.2574C197.07 54.1335 197.37 54.0761 197.671 54.0897C197.976 54.0746 198.279 54.1345 198.555 54.2642C198.831 54.394 199.071 54.5895 199.253 54.8337L199.252 54.8327ZM198.911 56.8477C198.944 56.331 198.803 55.8182 198.511 55.3907C198.388 55.2206 198.224 55.0835 198.035 54.9916C197.845 54.8997 197.637 54.8557 197.426 54.8637C197.166 54.8546 196.908 54.9198 196.683 55.0515C196.458 55.1832 196.275 55.3761 196.155 55.6077V58.2077C196.275 58.4393 196.458 58.6322 196.683 58.7639C196.908 58.8956 197.166 58.9607 197.426 58.9517C197.632 58.956 197.835 58.9102 198.018 58.8184C198.202 58.7266 198.361 58.5914 198.48 58.4247C198.812 57.9699 198.966 57.4092 198.912 56.8487L198.911 56.8477ZM201.611 59.6067H202.541V51.8887H201.611V59.6067ZM208.337 54.7707C208.77 55.3497 208.979 56.0651 208.926 56.7857V57.1857H205.235C205.218 57.6626 205.384 58.128 205.7 58.4857C205.843 58.6488 206.019 58.7783 206.218 58.8648C206.416 58.9513 206.631 58.9925 206.847 58.9857C207.138 58.9974 207.426 58.9333 207.684 58.7997C207.915 58.6672 208.116 58.4877 208.273 58.2727L208.831 58.7067C208.615 59.0483 208.311 59.3261 207.951 59.5113C207.592 59.6966 207.189 59.7827 206.785 59.7607C206.452 59.7716 206.121 59.714 205.811 59.5913C205.502 59.4687 205.22 59.2836 204.985 59.0477C204.511 58.5113 204.266 57.8099 204.303 57.0947V56.9087C204.292 56.4055 204.398 55.9066 204.613 55.4517C204.807 55.0484 205.107 54.7055 205.481 54.4597C205.838 54.2165 206.259 54.0868 206.69 54.0877C206.999 54.0686 207.307 54.1203 207.592 54.2388C207.877 54.3574 208.132 54.5397 208.335 54.7717L208.337 54.7707ZM207.996 56.3207C207.993 55.9282 207.863 55.5474 207.624 55.2357C207.508 55.1047 207.365 55.0009 207.204 54.9317C207.043 54.8626 206.869 54.8298 206.694 54.8357C206.515 54.8318 206.337 54.8654 206.172 54.9343C206.006 55.0031 205.857 55.1058 205.733 55.2357C205.464 55.5608 205.301 55.9615 205.268 56.3827H207.996V56.3207ZM214.661 58.3357C214.644 58.7368 214.708 59.1373 214.847 59.5137V59.6067H213.886C213.813 59.4293 213.771 59.2405 213.762 59.0487C213.563 59.2607 213.323 59.4303 213.057 59.5475C212.79 59.6647 212.503 59.727 212.212 59.7307C211.725 59.7486 211.25 59.5826 210.879 59.2657C210.713 59.1248 210.579 58.949 210.488 58.7508C210.397 58.5526 210.351 58.3368 210.352 58.1187C210.345 57.8604 210.401 57.6043 210.514 57.3722C210.627 57.14 210.795 56.9388 211.003 56.7857C211.549 56.4421 212.189 56.2794 212.832 56.3207H213.732V55.8887C213.745 55.6036 213.645 55.3251 213.453 55.1137C213.211 54.9117 212.9 54.8117 212.585 54.8347C212.287 54.8267 211.994 54.9135 211.748 55.0827C211.645 55.1502 211.56 55.2421 211.501 55.3502C211.441 55.4583 211.409 55.5793 211.407 55.7027H210.477C210.48 55.4203 210.579 55.1471 210.756 54.9277C210.957 54.6656 211.225 54.4623 211.531 54.3387C211.872 54.1867 212.243 54.1126 212.616 54.1217C213.152 54.0943 213.68 54.2592 214.104 54.5867C214.28 54.755 214.419 54.9568 214.515 55.1801C214.611 55.4034 214.661 55.6437 214.662 55.8867L214.661 58.3357ZM213.731 56.9717H212.987C211.84 56.9717 211.287 57.3127 211.287 57.9637C211.281 58.0909 211.302 58.218 211.351 58.3359C211.399 58.4538 211.473 58.5596 211.566 58.6457C211.777 58.8144 212.041 58.9024 212.31 58.8937C212.604 58.8953 212.892 58.8205 213.147 58.6767C213.4 58.5557 213.598 58.346 213.705 58.0877V56.9717H213.731ZM219.9 56.8477C219.549 56.668 219.173 56.5426 218.784 56.4757C218.446 56.4228 218.12 56.3071 217.823 56.1347C217.736 56.0842 217.664 56.0111 217.615 55.9231C217.566 55.8351 217.541 55.7354 217.544 55.6347C217.541 55.5215 217.565 55.4091 217.613 55.3068C217.662 55.2045 217.734 55.115 217.823 55.0457C218.059 54.8829 218.344 54.8063 218.629 54.8287C218.924 54.8158 219.212 54.9156 219.435 55.1077C219.533 55.1853 219.612 55.2844 219.666 55.3972C219.72 55.5101 219.747 55.6337 219.745 55.7587H220.675C220.683 55.5245 220.633 55.292 220.53 55.0813C220.428 54.8706 220.275 54.6882 220.086 54.5497C219.659 54.2267 219.133 54.0623 218.598 54.0847C218.074 54.0672 217.559 54.2315 217.141 54.5497C216.969 54.6804 216.829 54.849 216.732 55.0425C216.635 55.2361 216.584 55.4493 216.583 55.6657C216.574 55.9067 216.639 56.1447 216.769 56.3477C216.926 56.5684 217.141 56.7415 217.389 56.8477C217.746 57.0136 218.121 57.1384 218.505 57.2197C218.86 57.2669 219.199 57.3941 219.497 57.5917C219.589 57.6587 219.663 57.7477 219.712 57.8506C219.761 57.9535 219.783 58.067 219.776 58.1807C219.784 58.2936 219.758 58.4063 219.703 58.5052C219.648 58.6042 219.566 58.6852 219.466 58.7387C219.217 58.8975 218.924 58.9735 218.629 58.9557C218.297 58.9678 217.97 58.8697 217.699 58.6767C217.581 58.5927 217.485 58.4809 217.42 58.3512C217.356 58.2214 217.324 58.0777 217.327 57.9327H216.397C216.399 58.2537 216.496 58.567 216.676 58.8327C216.874 59.113 217.141 59.3372 217.451 59.4837C217.813 59.6386 218.205 59.7126 218.598 59.7007C219.138 59.7178 219.669 59.566 220.117 59.2667C220.308 59.137 220.462 58.9607 220.565 58.7544C220.669 58.5482 220.717 58.319 220.706 58.0887C220.716 57.8238 220.64 57.563 220.489 57.3447C220.343 57.1265 220.138 56.9545 219.897 56.8487L219.9 56.8477ZM225.728 56.8477C225.377 56.668 225.001 56.5426 224.612 56.4757C224.274 56.4227 223.948 56.3071 223.651 56.1347C223.564 56.0842 223.492 56.0111 223.443 55.9231C223.394 55.8351 223.369 55.7354 223.372 55.6347C223.369 55.5215 223.393 55.4091 223.441 55.3068C223.49 55.2045 223.562 55.115 223.651 55.0457C223.887 54.8829 224.172 54.8063 224.457 54.8287C224.752 54.8158 225.04 54.9156 225.263 55.1077C225.361 55.1853 225.44 55.2844 225.494 55.3972C225.548 55.5101 225.575 55.6337 225.573 55.7587H226.503C226.511 55.5244 226.461 55.2919 226.359 55.0812C226.256 54.8706 226.104 54.6881 225.914 54.5497C225.487 54.2268 224.961 54.0624 224.426 54.0847C223.902 54.0671 223.387 54.2314 222.969 54.5497C222.797 54.6803 222.657 54.8489 222.56 55.0425C222.463 55.236 222.412 55.4493 222.411 55.6657C222.402 55.9067 222.467 56.1447 222.597 56.3477C222.754 56.5684 222.969 56.7414 223.217 56.8477C223.574 57.0136 223.948 57.1384 224.333 57.2197C224.688 57.2669 225.027 57.3941 225.325 57.5917C225.417 57.6587 225.491 57.7477 225.54 57.8506C225.589 57.9535 225.611 58.067 225.604 58.1807C225.612 58.2936 225.586 58.4063 225.531 58.5052C225.476 58.6042 225.394 58.6852 225.294 58.7387C225.045 58.8975 224.752 58.9735 224.457 58.9557C224.125 58.9679 223.798 58.8698 223.527 58.6767C223.409 58.5928 223.313 58.481 223.248 58.3512C223.183 58.2214 223.151 58.0777 223.155 57.9327H222.225C222.227 58.2537 222.324 58.567 222.504 58.8327C222.702 59.1129 222.969 59.3372 223.279 59.4837C223.641 59.6386 224.033 59.7126 224.426 59.7007C224.966 59.7178 225.497 59.566 225.945 59.2667C226.136 59.137 226.29 58.9607 226.393 58.7544C226.497 58.5482 226.545 58.319 226.534 58.0887C226.544 57.8238 226.468 57.563 226.317 57.3447C226.171 57.1264 225.965 56.9544 225.724 56.8487L225.728 56.8477ZM228.859 52.1977C228.786 52.1946 228.712 52.2067 228.643 52.2334C228.574 52.2601 228.512 52.3007 228.459 52.3527C228.379 52.46 228.335 52.5905 228.335 52.7247C228.335 52.8588 228.379 52.9893 228.459 53.0967C228.57 53.1967 228.713 53.2522 228.862 53.2522C229.011 53.2522 229.155 53.1967 229.265 53.0967C229.314 53.048 229.353 52.99 229.38 52.9262C229.407 52.8623 229.42 52.7938 229.42 52.7247C229.42 52.6555 229.407 52.587 229.38 52.5232C229.353 52.4593 229.314 52.4014 229.265 52.3527C229.154 52.2506 229.007 52.1955 228.855 52.1987L228.859 52.1977ZM228.359 59.6057H229.289V54.1497H228.359V59.6057ZM234.559 56.8467C234.208 56.667 233.832 56.5415 233.443 56.4747C233.105 56.4218 232.779 56.3061 232.482 56.1337C232.395 56.0832 232.323 56.0101 232.274 55.9221C232.225 55.8341 232.201 55.7344 232.203 55.6337C232.2 55.5205 232.224 55.4081 232.272 55.3058C232.321 55.2034 232.393 55.114 232.482 55.0447C232.718 54.8819 233.003 54.8053 233.288 54.8277C233.583 54.8148 233.871 54.9146 234.094 55.1067C234.192 55.1843 234.271 55.2834 234.325 55.3962C234.379 55.5091 234.406 55.6327 234.404 55.7577H235.334C235.342 55.5235 235.292 55.291 235.189 55.0803C235.087 54.8696 234.934 54.6872 234.745 54.5487C234.318 54.2258 233.792 54.0614 233.257 54.0837C232.733 54.066 232.218 54.2303 231.8 54.5487C231.628 54.6793 231.488 54.8479 231.391 55.0415C231.294 55.235 231.243 55.4483 231.242 55.6647C231.233 55.9057 231.298 56.1437 231.428 56.3467C231.585 56.5674 231.8 56.7404 232.048 56.8467C232.405 57.0126 232.78 57.1374 233.164 57.2187C233.515 57.2803 233.852 57.4064 234.156 57.5907C234.248 57.6577 234.322 57.7467 234.371 57.8496C234.42 57.9525 234.442 58.066 234.435 58.1797C234.443 58.2926 234.417 58.4053 234.362 58.5042C234.307 58.6031 234.225 58.6842 234.125 58.7377C233.876 58.8965 233.583 58.9725 233.288 58.9547C232.956 58.9668 232.629 58.8687 232.358 58.6757C232.24 58.5917 232.144 58.4799 232.079 58.3502C232.015 58.2204 231.983 58.0767 231.986 57.9317H231.056C231.058 58.2527 231.155 58.5661 231.335 58.8317C231.533 59.1119 231.8 59.3362 232.11 59.4827C232.472 59.6378 232.864 59.7118 233.257 59.6997C233.797 59.7167 234.328 59.565 234.776 59.2657C234.967 59.136 235.121 58.9596 235.224 58.7534C235.327 58.5472 235.376 58.318 235.365 58.0877C235.375 57.8228 235.299 57.562 235.148 57.3437C235.003 57.1264 234.799 56.9547 234.559 56.8487V56.8467ZM238.527 58.7687C238.431 58.6206 238.387 58.4445 238.403 58.2687V54.8897H239.426V54.1767H238.403V52.8437H237.473V54.1767H236.481V54.8897H237.473V58.2687C237.448 58.6553 237.558 59.0388 237.783 59.3537C237.901 59.4807 238.046 59.58 238.207 59.6443C238.367 59.7087 238.54 59.7364 238.713 59.7257C238.954 59.7234 239.193 59.6921 239.426 59.6327V58.8887C239.283 58.9182 239.138 58.939 238.992 58.9507C238.775 58.9247 238.619 58.8937 238.526 58.7697L238.527 58.7687ZM241.595 58.5887C241.436 58.5819 241.28 58.6375 241.161 58.7437C241.061 58.8528 241.006 58.9956 241.006 59.1437C241.012 59.2906 241.066 59.4316 241.161 59.5437C241.284 59.6439 241.437 59.6987 241.595 59.6987C241.754 59.6987 241.907 59.6439 242.029 59.5437C242.129 59.4333 242.185 59.2896 242.185 59.1407C242.185 58.9917 242.129 58.848 242.029 58.7377C241.936 58.6147 241.812 58.5887 241.595 58.5887ZM245.315 55.3647C245.441 55.198 245.605 55.0651 245.795 54.9778C245.984 54.8905 246.192 54.8516 246.4 54.8647C246.732 54.8639 247.052 54.9853 247.3 55.2057C247.541 55.4321 247.685 55.7434 247.7 56.0737H248.568C248.562 55.8043 248.501 55.539 248.389 55.2939C248.277 55.0488 248.117 54.8289 247.917 54.6477C247.504 54.2696 246.958 54.0691 246.398 54.0897C245.942 54.0847 245.493 54.2025 245.098 54.4307C244.727 54.6572 244.435 54.9928 244.261 55.3917C244.068 55.8417 243.973 56.3279 243.982 56.8177V56.9727C243.934 57.7028 244.167 58.4238 244.633 58.9877C244.854 59.2354 245.127 59.4307 245.433 59.5595C245.738 59.6882 246.069 59.747 246.4 59.7317C246.766 59.727 247.125 59.6423 247.454 59.4837C247.775 59.3265 248.052 59.0922 248.26 58.8017C248.45 58.5385 248.557 58.2256 248.57 57.9017H247.702C247.694 58.0474 247.654 58.1895 247.585 58.318C247.516 58.4465 247.419 58.5584 247.302 58.6457C247.056 58.8434 246.75 58.9526 246.434 58.9557C246.222 58.9656 246.011 58.9255 245.817 58.8386C245.623 58.7518 245.452 58.6206 245.318 58.4557C245.028 58.0284 244.896 57.5129 244.946 56.9987V56.8127C244.916 56.3021 245.045 55.7948 245.315 55.3607V55.3647ZM254.18 54.8377C254.656 55.4101 254.9 56.1403 254.862 56.8837V56.9457C254.874 57.4389 254.768 57.9278 254.552 58.3717C254.359 58.775 254.058 59.118 253.684 59.3637C253.193 59.6476 252.621 59.7591 252.06 59.6804C251.498 59.6018 250.979 59.3375 250.584 58.9297C250.104 58.3598 249.86 57.6277 249.902 56.8837V56.8217C249.887 56.3281 249.994 55.8385 250.212 55.3957C250.406 54.9924 250.706 54.6495 251.08 54.4037C251.571 54.1199 252.143 54.0086 252.705 54.0872C253.267 54.1658 253.786 54.43 254.18 54.8377ZM253.932 56.8527C253.95 56.3327 253.798 55.8212 253.498 55.3957C253.368 55.2224 253.2 55.0818 253.006 54.9849C252.813 54.8881 252.599 54.8377 252.382 54.8377C252.166 54.8377 251.952 54.8881 251.759 54.9849C251.565 55.0818 251.396 55.2224 251.266 55.3957C250.954 55.8618 250.802 56.4166 250.832 56.9767C250.815 57.4966 250.967 58.0081 251.266 58.4337C251.396 58.6069 251.565 58.7475 251.759 58.8444C251.952 58.9412 252.166 58.9917 252.382 58.9917C252.599 58.9917 252.813 58.9412 253.006 58.8444C253.2 58.7475 253.368 58.6069 253.498 58.4337C253.807 57.9645 253.959 57.4096 253.932 56.8487V56.8527ZM262.332 54.0937C261.976 54.0872 261.623 54.1726 261.309 54.3417C261.031 54.4965 260.788 54.7077 260.596 54.9617C260.457 54.6761 260.235 54.4399 259.957 54.2847C259.68 54.1296 259.362 54.0629 259.046 54.0937C258.741 54.0833 258.438 54.142 258.159 54.2655C257.88 54.3889 257.632 54.574 257.434 54.8067L257.403 54.2177H256.535V59.6737H257.465V55.7057C257.562 55.4605 257.734 55.2528 257.957 55.1133C258.181 54.9737 258.443 54.9097 258.705 54.9307C258.864 54.9103 259.024 54.927 259.175 54.9795C259.326 55.032 259.462 55.1188 259.573 55.2331C259.685 55.3474 259.768 55.486 259.816 55.638C259.865 55.7899 259.877 55.9511 259.852 56.1087V59.6737H260.782V56.0467C260.819 55.8137 260.915 55.5943 261.062 55.4099C261.209 55.2256 261.401 55.0826 261.62 54.995C261.839 54.9075 262.077 54.8783 262.311 54.9105C262.544 54.9427 262.765 55.0351 262.952 55.1787C263.154 55.4209 263.254 55.7321 263.231 56.0467V59.6467H264.161V55.9887C264.13 54.7097 263.541 54.0887 262.332 54.0887V54.0937Z" fill="#01B4D2"/>
<path d="M59.1454 12.864L59.1144 4.216L29.8534 0L0.529372 4.247L0.436373 12.8C0.124279 15.465 -0.0206735 18.1469 0.0023711 20.83V21.016C0.0023711 33.416 3.53637 44.605 10.6654 53.78C15.4234 60.0467 21.5661 65.1284 28.6134 68.628C29.0474 68.814 29.6674 69.155 29.6674 69.155L29.8534 69.248L30.0394 69.155C30.0394 69.155 30.6594 68.876 31.0934 68.628C38.1303 64.9804 44.3025 59.8652 49.1934 53.628C56.0315 44.1051 59.6579 32.6512 59.5464 20.928C59.5638 18.2346 59.4299 15.5424 59.1454 12.864Z" fill="#01B4D2"/>
<path d="M1.24637 13.1442C-0.52463 28.9572 2.91637 42.4052 11.2544 53.3472C15.9876 59.4929 22.0351 64.5025 28.9544 68.0092C29.2644 68.1952 29.6364 68.3502 29.8224 68.4432C30.0084 68.3502 30.2874 68.1642 30.5664 68.0092C37.4929 64.5136 43.5427 59.5021 48.2664 53.3472C56.4804 42.4672 59.8594 29.0472 58.1854 13.2362C49.1116 9.60946 39.4379 7.71706 29.6664 7.65723C19.9327 7.68696 10.2915 9.54836 1.24637 13.1442Z" fill="#00004C"/>
<path d="M33.9134 36.2361L28.3654 21.6671L22.7234 36.2361H33.9134ZM34.6264 38.2511H21.8864L19.6864 43.9241C19.2514 44.9286 18.9793 45.9959 18.8804 47.0861C18.877 47.3634 18.9399 47.6375 19.0639 47.8855C19.188 48.1336 19.3695 48.3484 19.5934 48.5121C20.4904 49.0804 21.5394 49.3616 22.6004 49.3181V50.3101H12.3394V49.3181C13.271 49.2262 14.1602 48.8833 14.9124 48.3261C15.7184 47.5201 16.5864 45.7841 17.6404 43.1801L29.1404 13.5801H29.9464L41.5394 43.4591C42.0822 45.154 42.9219 46.739 44.0194 48.1401C44.8832 48.8914 45.9757 49.3284 47.1194 49.3801V50.3721H34.1924V49.3771C35.5254 49.2841 36.3924 49.0981 36.7654 48.6641C36.9833 48.4744 37.1593 48.2413 37.2821 47.9798C37.4049 47.7182 37.4717 47.4339 37.4784 47.1451C37.3553 45.8723 37.0309 44.6271 36.5174 43.4561L34.6264 38.2511Z" fill="white"/>
<path d="M39.7404 13.4209V25.6339H38.5934C38.2982 23.6679 37.6356 21.7749 36.6404 20.0539C35.7022 18.5844 34.3554 17.4209 32.7654 16.7059C31.3175 16.0908 29.7482 15.8151 28.1774 15.8999C26.834 15.8883 25.5251 16.3246 24.4574 17.1399C23.8065 17.5391 23.2648 18.0936 22.8808 18.7537C22.4969 19.4137 22.2826 20.1587 22.2574 20.9219C22.268 21.4821 22.3916 22.0344 22.6206 22.5457C22.8496 23.0571 23.1795 23.517 23.5904 23.8979C24.9234 25.2309 26.3184 26.2229 31.0904 28.7649C35.0584 30.9039 38.3434 32.2059 39.8314 33.1049C41.2092 33.9241 42.3602 35.075 43.1794 36.4529C43.8981 37.6882 44.2926 39.0852 44.3264 40.5139C44.296 41.8779 43.9431 43.2153 43.2965 44.4167C42.6499 45.6181 41.7281 46.6493 40.6064 47.4259C38.1264 49.3479 34.2524 50.2779 30.2534 50.2779C29.0134 50.2779 27.6804 50.2779 26.7194 50.1849C25.168 50.0616 23.6318 49.7918 22.1314 49.3789C20.9755 49.021 19.7941 48.7515 18.5974 48.5729C18.3713 48.546 18.142 48.5711 17.9271 48.6463C17.7122 48.7215 17.5173 48.8448 17.3574 49.0069C17.0243 49.3807 16.8087 49.8443 16.7374 50.3399H15.5004V38.2499H16.6474C16.9745 40.2743 17.7241 42.2072 18.8474 43.9229C19.8107 45.3624 21.1972 46.4672 22.8154 47.0849C25.0118 47.9231 27.3455 48.3437 29.6964 48.3249C32.0744 48.4124 34.4283 47.8228 36.4844 46.6249C37.1541 46.1709 37.7097 45.568 38.1077 44.8635C38.5057 44.159 38.7352 43.3719 38.7784 42.5639C38.7093 41.6365 38.4339 40.7362 37.9724 39.9289C37.292 38.8887 36.3516 38.0445 35.2444 37.4799C34.4384 36.9529 31.3694 35.7799 27.9914 33.7909C25.9296 32.6738 23.9508 31.4099 22.0704 30.0089C20.6674 29.1573 19.4625 28.0158 18.5364 26.6609C17.7658 25.4827 17.3663 24.1005 17.3894 22.6929C17.4022 21.4061 17.7312 20.1423 18.3475 19.0126C18.9638 17.883 19.8484 16.9222 20.9234 16.2149C23.0197 14.7169 25.5088 13.8656 28.0834 13.7659C30.255 13.6682 32.4222 14.0382 34.4384 14.8509C35.1304 15.183 35.8748 15.3927 36.6384 15.4709C36.8787 15.4975 37.1218 15.4725 37.3517 15.3977C37.5816 15.3229 37.7928 15.1999 37.9714 15.0369C38.4053 14.5994 38.6877 14.0345 38.7774 13.4249L39.7404 13.4209Z" fill="#01B4D2"/>
<path d="M29.1404 13.5763C29.2024 13.4523 29.3264 13.2354 29.5404 13.2354C29.7544 13.2354 29.8814 13.4523 29.9404 13.5763L30.9634 16.1763C31.0564 16.4243 30.9324 16.6763 30.5294 16.6763H28.3594C28.0804 16.5833 28.0804 16.3663 28.2044 15.9633L29.1404 13.5763Z" fill="white"/>
<path d="M43.9864 48.0757C44.859 48.8606 45.976 49.3199 47.1484 49.3757V50.3677H34.2224V49.3757C35.5554 49.2827 36.4224 49.0967 36.7954 48.6627C37.0133 48.473 37.1893 48.2399 37.3121 47.9784C37.4349 47.7168 37.5017 47.4325 37.5084 47.1437C37.3853 45.8709 37.0609 44.6257 36.5474 43.4547L34.6254 38.2467L35.1834 37.4717C36.7954 38.2467 40.6084 41.0367 41.5384 43.4537C42.1406 45.0984 42.9641 46.6534 43.9864 48.0757Z" fill="white"/>
<path d="M5.17637 6.35352L5.54838 7.53152L5.45537 7.56252C5.29494 7.31151 5.07013 7.10812 4.80438 6.97352C4.55506 6.88538 4.28494 6.87457 4.02937 6.94252C3.81472 6.99918 3.62765 7.13123 3.50237 7.31452C3.37013 7.49773 3.28496 7.71064 3.25437 7.93452C3.2208 8.24015 3.2634 8.54935 3.37837 8.83452C3.4644 9.11914 3.5896 9.3904 3.75038 9.64052C3.88951 9.8444 4.08275 10.0054 4.30837 10.1055C4.54196 10.1678 4.78779 10.1678 5.02138 10.1055C5.23339 10.0413 5.42547 9.92388 5.57937 9.76452C5.75725 9.56642 5.8933 9.33445 5.97938 9.08252L6.07237 9.39252C5.9612 9.62869 5.80297 9.83966 5.60737 10.0125C5.40588 10.1789 5.17438 10.3052 4.92537 10.3845C4.58797 10.506 4.22484 10.5381 3.87137 10.4775C3.543 10.4296 3.23871 10.2775 3.00337 10.0435C2.77209 9.81563 2.59237 9.54078 2.47637 9.23752C2.37266 8.90577 2.36194 8.55193 2.44538 8.21452C2.51729 7.8784 2.67784 7.56765 2.91038 7.31452C3.14129 7.07207 3.42894 6.89096 3.74737 6.78752C4.01101 6.72245 4.28185 6.6912 4.55337 6.69452H4.86337C4.91002 6.67132 4.95205 6.63981 4.98738 6.60152C5.01504 6.53274 5.02568 6.45829 5.01837 6.38452L5.17637 6.35352Z" fill="white"/>
<path d="M7.56637 7.74856L7.84537 8.83356C7.86523 8.95392 7.90728 9.06955 7.96937 9.17456C8.01665 9.21235 8.06878 9.24362 8.12437 9.26756C8.20409 9.29878 8.29265 9.29878 8.37237 9.26756L8.49637 9.23656L8.52737 9.32956L6.69837 9.79456L6.66737 9.70156L6.79137 9.67056C6.88437 9.63955 6.97737 9.60855 7.00837 9.54655C7.04715 9.50412 7.06919 9.44903 7.07038 9.39156C7.06854 9.27526 7.04759 9.16006 7.00837 9.05056L6.41937 6.72556C6.39951 6.60519 6.35747 6.48956 6.29537 6.38456C6.24809 6.34677 6.19596 6.31549 6.14037 6.29156C6.06066 6.26033 5.97209 6.26033 5.89237 6.29156L5.79937 6.35356V6.26056L7.62838 5.79556L7.65937 5.88856L7.53537 5.91956C7.44237 5.95056 7.34937 5.98156 7.31837 6.04356C7.27959 6.08599 7.25756 6.14108 7.25637 6.19855C7.25819 6.31485 7.27914 6.43006 7.31837 6.53955L7.56637 7.53156L8.80638 7.22156L8.55838 6.22956C8.53854 6.10919 8.49649 5.99355 8.43438 5.88856C8.38709 5.85078 8.33496 5.8195 8.27938 5.79556C8.19966 5.76433 8.11109 5.76433 8.03138 5.79556L7.90738 5.82656L7.87638 5.73355L9.70537 5.26855L9.73637 5.36156L9.61238 5.39256C9.51938 5.42356 9.42637 5.45456 9.39537 5.51656C9.35659 5.55899 9.33455 5.61408 9.33337 5.67155C9.33521 5.78785 9.35616 5.90306 9.39537 6.01256L9.98437 8.30656C10.0042 8.42693 10.0463 8.54256 10.1084 8.64756C10.1557 8.68534 10.2078 8.71661 10.2634 8.74055C10.3431 8.77178 10.4317 8.77178 10.5114 8.74055L10.6354 8.70956L10.6664 8.80256L8.83738 9.26756L8.80638 9.17456L8.93037 9.14355C9.02337 9.11255 9.11637 9.08156 9.14737 9.01956C9.18615 8.97712 9.20819 8.92203 9.20938 8.86456C9.20754 8.74826 9.18659 8.63306 9.14737 8.52356L8.80638 7.40755L7.56637 7.74856Z" fill="white"/>
<path d="M12.6494 7.28346L11.4094 7.53146L11.3474 7.90346C11.3162 8.00445 11.3162 8.11248 11.3474 8.21346C11.3784 8.30646 11.4094 8.36846 11.5024 8.39946C11.6258 8.41601 11.7509 8.41601 11.8744 8.39946L11.9054 8.49246L10.7274 8.74046L10.6654 8.64746C10.7817 8.61151 10.8809 8.53435 10.9444 8.43046C11.034 8.24397 11.0967 8.04564 11.1304 7.84146L11.8124 4.77246H11.8744L13.7344 7.37246C13.8465 7.54454 13.981 7.70091 14.1344 7.83746C14.2203 7.88216 14.3198 7.89321 14.4134 7.86846L14.4444 7.96146L12.7444 8.30246L12.7134 8.20946H12.7754C12.8777 8.1936 12.974 8.1508 13.0544 8.08546C13.079 8.04909 13.09 8.00516 13.0854 7.96146C13.0854 7.93046 13.0544 7.89946 13.0544 7.86846C13.018 7.8033 12.9765 7.74111 12.9304 7.68246L12.6494 7.28346ZM12.5254 7.09746L11.7504 5.98146L11.4714 7.31446L12.5254 7.09746Z" fill="white"/>
<path d="M16.4004 7.50089L16.4314 7.59389L14.5714 7.93489L14.5404 7.84189L14.6644 7.81089C14.7489 7.78505 14.8317 7.75398 14.9124 7.71789C14.9502 7.6706 14.9814 7.61848 15.0054 7.56289C15.0046 7.44856 14.9942 7.33449 14.9744 7.22189L14.5404 4.92789C14.5264 4.81026 14.495 4.69534 14.4474 4.58689C14.4114 4.54723 14.3683 4.51467 14.3204 4.49089C14.2407 4.45967 14.1521 4.45967 14.0724 4.49089L13.9484 4.52189L13.9174 4.42889L15.7774 4.08789L15.8084 4.18089L15.6844 4.21189C15.5999 4.23772 15.517 4.26878 15.4364 4.30489C15.3986 4.35217 15.3673 4.4043 15.3434 4.45989C15.3442 4.57422 15.3545 4.68829 15.3744 4.80089L15.8084 7.12589C15.8224 7.24352 15.8537 7.35844 15.9014 7.46689C15.9367 7.50518 15.9787 7.5367 16.0254 7.55989C16.1051 7.59111 16.1937 7.59111 16.2734 7.55989L16.4004 7.50089Z" fill="white"/>
<path d="M17.3304 3.81138L19.4384 5.73338L19.1904 4.21438C19.181 4.0683 19.1269 3.92865 19.0354 3.81438C18.9755 3.76568 18.905 3.73185 18.8296 3.71569C18.7541 3.69952 18.6759 3.70147 18.6014 3.72138V3.62838L19.7794 3.44238V3.53539C19.677 3.55106 19.5806 3.59387 19.5004 3.65938C19.4719 3.67386 19.448 3.69608 19.4316 3.7235C19.4151 3.75092 19.4067 3.78242 19.4074 3.81438V4.18638L19.8724 7.13138H19.7794L16.9274 4.55838L17.2684 6.82138C17.2994 7.03838 17.3614 7.16238 17.4854 7.22138C17.5907 7.27442 17.7091 7.29595 17.8264 7.28338H17.9194V7.37638L16.6484 7.56239V7.46938C16.7983 7.45211 16.9386 7.38687 17.0484 7.28338C17.1208 7.16339 17.1431 7.01968 17.1104 6.88338L16.7104 4.37238L16.6174 4.27938C16.5554 4.21457 16.4818 4.16198 16.4004 4.12438C16.3207 4.09316 16.2321 4.09316 16.1524 4.12438V4.03138L17.3304 3.81138Z" fill="white"/>
<path d="M23.4684 2.9128C23.7165 2.86141 23.9729 2.86532 24.2194 2.92426C24.4659 2.98319 24.6963 3.09571 24.8944 3.2538C25.0895 3.40718 25.2509 3.59927 25.3683 3.818C25.4856 4.03673 25.5565 4.27737 25.5764 4.5248C25.6443 4.95857 25.5445 5.40192 25.2974 5.7648C25.146 6.01003 24.9369 6.2145 24.6883 6.36039C24.4398 6.50628 24.1593 6.58916 23.8714 6.6018C23.5919 6.64616 23.3059 6.62401 23.0366 6.53713C22.7673 6.45026 22.5222 6.30112 22.3214 6.1018C22.009 5.78247 21.8126 5.36776 21.7634 4.9238C21.7336 4.67635 21.7536 4.42543 21.8223 4.18584C21.891 3.94626 22.007 3.72285 22.1634 3.5288C22.3266 3.34165 22.5269 3.19031 22.7514 3.0843C22.976 2.97829 23.2201 2.9199 23.4684 2.9128ZM23.5304 3.0988C23.3682 3.10983 23.2141 3.17323 23.0911 3.27945C22.9681 3.38568 22.8829 3.52899 22.8484 3.6878C22.7294 4.07917 22.6977 4.49185 22.7554 4.8968C22.7617 5.36976 22.9253 5.82715 23.2204 6.1968C23.3013 6.28698 23.4026 6.35653 23.5158 6.39967C23.6291 6.4428 23.751 6.45828 23.8714 6.4448C24.0315 6.42788 24.1827 6.36305 24.3054 6.2588C24.4746 6.10491 24.5843 5.89642 24.6154 5.6698C24.6744 5.34246 24.6849 5.00819 24.6464 4.6778C24.6188 4.31575 24.5351 3.96017 24.3984 3.6238C24.307 3.43717 24.1693 3.27708 23.9984 3.1588C23.853 3.08863 23.6888 3.06757 23.5304 3.0988Z" fill="white"/>
<path d="M27.2804 2.88186L27.3424 4.36986H27.4354C27.5658 4.3763 27.6953 4.34393 27.8074 4.27686C27.9117 4.21916 27.9977 4.1332 28.0554 4.02886C28.1188 3.88062 28.1606 3.72401 28.1794 3.56386H28.2724L28.3654 5.36386H28.2724C28.2104 5.02286 28.1174 4.80586 27.9624 4.71286C27.8069 4.61058 27.6202 4.56666 27.4354 4.58886H27.3424L27.4044 5.67386C27.3928 5.79108 27.4143 5.90921 27.4664 6.01486C27.4974 6.04586 27.5284 6.10786 27.5904 6.13886C27.67 6.16649 27.7545 6.17705 27.8384 6.16986H27.9624V6.26286L26.1024 6.35586V6.26286H26.2264C26.3126 6.26076 26.3973 6.23959 26.4744 6.20086C26.5054 6.16986 26.5674 6.13886 26.5674 6.07686C26.5984 6.04586 26.5984 5.92186 26.5674 5.73586L26.4434 3.37986C26.4571 3.26136 26.437 3.14141 26.3854 3.03386C26.3544 3.00286 26.3234 2.94086 26.2614 2.90986C26.1818 2.88223 26.0973 2.87167 26.0134 2.87886H25.8854V2.78586L28.9234 2.63086L28.9854 3.65386H28.8924C28.8705 3.46143 28.7953 3.27892 28.6754 3.12686C28.6162 3.06152 28.5446 3.00866 28.4648 2.97139C28.3849 2.93413 28.2984 2.91321 28.2104 2.90986C28.0154 2.87704 27.8163 2.87704 27.6214 2.90986L27.2804 2.88186Z" fill="white"/>
<path d="M34.1614 2.66463L34.0994 3.90463H34.0064C33.9702 3.6067 33.8283 3.33167 33.6064 3.12963C33.4132 2.94882 33.158 2.84897 32.8934 2.85063C32.6759 2.83912 32.4599 2.89312 32.2734 3.00563C32.0819 3.12513 31.9308 3.2993 31.8394 3.50563C31.5937 4.05133 31.5498 4.66654 31.7154 5.24163C31.7641 5.47787 31.883 5.69393 32.0564 5.86162C32.2382 6.01703 32.4682 6.10467 32.7074 6.10963C32.9208 6.11654 33.133 6.07411 33.3274 5.98562C33.5646 5.8609 33.7752 5.69106 33.9474 5.48562V5.79563C33.7531 5.97177 33.5337 6.11803 33.2964 6.22962C33.0504 6.32711 32.7834 6.35915 32.5214 6.32263C32.1656 6.2961 31.8183 6.20138 31.4984 6.04363C31.2222 5.88124 30.9967 5.64506 30.8474 5.36162C30.6943 5.077 30.6296 4.75322 30.6614 4.43162C30.6885 4.09154 30.7947 3.76248 30.9714 3.47063C31.1471 3.1752 31.4058 2.93801 31.7154 2.78863C32.0246 2.63993 32.3643 2.56561 32.7074 2.57163C32.9839 2.59244 33.2557 2.65515 33.5134 2.75762C33.6684 2.81962 33.7614 2.85062 33.8234 2.88162C33.8854 2.88162 33.9164 2.85062 33.9784 2.81962C34.0219 2.76475 34.0536 2.70141 34.0714 2.63363L34.1614 2.66463Z" fill="white"/>
<path d="M34.7814 2.78906L36.6104 2.97506V3.06807H36.2384C36.183 3.09244 36.1387 3.13668 36.1144 3.19206C36.0674 3.31021 36.0462 3.43706 36.0524 3.56406L35.8664 5.30006C35.8339 5.51585 35.8339 5.73528 35.8664 5.95107C35.8783 6.01126 35.9042 6.06783 35.9418 6.11626C35.9795 6.1647 36.028 6.20367 36.0834 6.23006C36.1998 6.31773 36.3383 6.37138 36.4834 6.38506C36.5687 6.4034 36.6569 6.40462 36.7427 6.38866C36.8285 6.37269 36.9103 6.33986 36.9834 6.29206C37.1325 6.22051 37.2528 6.10022 37.3244 5.95107C37.4415 5.70914 37.5049 5.44478 37.5104 5.17606L37.6654 3.71906C37.6816 3.60598 37.6816 3.49115 37.6654 3.37806C37.6422 3.3142 37.5986 3.25974 37.5414 3.22306C37.4428 3.15158 37.3216 3.11852 37.2004 3.13007V3.03706L38.4404 3.16106V3.25406H38.3814C38.2975 3.24687 38.213 3.25744 38.1334 3.28506C38.0674 3.32009 38.0134 3.37408 37.9784 3.44006C37.9332 3.53694 37.9119 3.64326 37.9164 3.75006L37.7924 5.11406C37.7874 5.42307 37.7243 5.72838 37.6064 6.01406C37.5638 6.11866 37.5007 6.21368 37.4208 6.29353C37.341 6.37339 37.246 6.43647 37.1414 6.47906C36.8634 6.61894 36.5501 6.6729 36.2414 6.63406C35.9935 6.62158 35.7508 6.55827 35.5284 6.44806C35.3282 6.33911 35.1741 6.16157 35.0944 5.94806C35.0234 5.71749 35.0022 5.47444 35.0324 5.23507L35.2184 3.49907C35.249 3.2824 35.249 3.1584 35.2184 3.12706C35.1952 3.08041 35.1637 3.03839 35.1254 3.00306C35.0285 2.95785 34.9222 2.93659 34.8154 2.94106L34.7814 2.78906Z" fill="white"/>
<path d="M41.2604 3.50134L41.0704 4.67934L40.9774 4.64834C40.9849 4.36415 40.8853 4.08752 40.6984 3.87334C40.5557 3.67982 40.3454 3.54703 40.1094 3.50134C40.0348 3.48143 39.9566 3.47948 39.8812 3.49564C39.8058 3.51181 39.7352 3.54563 39.6754 3.59434C39.5669 3.66704 39.4896 3.77758 39.4584 3.90434C39.4511 3.97811 39.4617 4.05256 39.4894 4.12134C39.5305 4.23488 39.6064 4.33253 39.7064 4.40034C39.7684 4.46234 39.9544 4.58634 40.2334 4.80034C40.5312 4.9798 40.7854 5.22336 40.9774 5.51334C41.0923 5.70962 41.1361 5.93954 41.1014 6.16434C41.0864 6.31166 41.0363 6.45326 40.9554 6.5773C40.8745 6.70134 40.7651 6.80422 40.6364 6.87734C40.503 6.97166 40.3513 7.03694 40.1911 7.06898C40.0309 7.10102 39.8658 7.0991 39.7064 7.06334C39.5983 7.05113 39.4933 7.01963 39.3964 6.97034C39.2738 6.92629 39.1588 6.86355 39.0554 6.78434C38.9624 6.72234 38.9004 6.72234 38.8694 6.69134C38.816 6.68924 38.7628 6.69986 38.7144 6.72234C38.6481 6.75696 38.594 6.81105 38.5594 6.87734H38.4704L38.6564 5.54434H38.7494C38.7515 5.87937 38.8601 6.20505 39.0594 6.47434C39.219 6.68411 39.4511 6.82675 39.7104 6.87434C39.7957 6.89267 39.8839 6.89389 39.9697 6.87793C40.0555 6.86197 40.1373 6.82914 40.2104 6.78134C40.2696 6.74422 40.3199 6.69435 40.3574 6.63536C40.3949 6.57637 40.4188 6.50974 40.4274 6.44034C40.4324 6.35647 40.4219 6.27239 40.3964 6.19234C40.3553 6.09588 40.2915 6.01079 40.2104 5.94434C40.0748 5.8195 39.9297 5.70549 39.7764 5.60334C39.5474 5.4529 39.3298 5.28578 39.1254 5.10334C39.0043 4.97876 38.9094 4.83119 38.8464 4.66934C38.7953 4.51993 38.7743 4.36191 38.7844 4.20434C38.8235 3.93346 38.967 3.68865 39.1844 3.52234C39.4341 3.36694 39.7293 3.30134 40.0214 3.33634C40.1454 3.36734 40.2384 3.39834 40.3624 3.42934C40.4616 3.46894 40.5553 3.52103 40.6414 3.58434C40.7654 3.64634 40.8274 3.70834 40.8894 3.70834C40.9331 3.71298 40.977 3.702 41.0134 3.67734C41.0688 3.62604 41.1114 3.56229 41.1374 3.49134L41.2604 3.50134Z" fill="white"/>
<path d="M45.1664 4.27684L44.9804 5.23784L44.8874 5.20684C44.884 5.0362 44.8526 4.86728 44.7944 4.70684C44.747 4.58764 44.6592 4.48888 44.5464 4.42784C44.4388 4.37126 44.3241 4.32955 44.2054 4.30384L43.9574 4.24184L43.4574 6.96984C43.4375 7.08245 43.4272 7.19651 43.4264 7.31084C43.4264 7.37284 43.4574 7.40384 43.5194 7.46584C43.5892 7.50245 43.6617 7.53355 43.7364 7.55884L43.8604 7.58984L43.8294 7.68284L41.9694 7.34184L42.0004 7.24884L42.1244 7.27984C42.2041 7.31107 42.2927 7.31107 42.3724 7.27984C42.419 7.25665 42.4611 7.22513 42.4964 7.18684C42.5456 7.08988 42.5771 6.98489 42.5894 6.87684L43.0894 4.14884L42.8414 4.08684C42.6541 4.03734 42.4552 4.05944 42.2834 4.14884C42.0935 4.287 41.9532 4.48268 41.8834 4.70684L41.7904 4.67584L41.9764 3.71484L45.1664 4.27684Z" fill="white"/>
<path d="M47.4594 4.71089C47.7137 4.74217 47.9576 4.83101 48.1725 4.97068C48.3873 5.11034 48.5675 5.29714 48.6994 5.51689C48.8343 5.72575 48.9234 5.96083 48.9608 6.20663C48.9982 6.45243 48.983 6.70337 48.9164 6.94289C48.8313 7.36892 48.6012 7.75231 48.2654 8.02789C48.038 8.19704 47.7768 8.31517 47.4996 8.37422C47.2224 8.43327 46.9358 8.43185 46.6592 8.37006C46.3826 8.30827 46.1226 8.18756 45.8969 8.01617C45.6712 7.84478 45.4852 7.62673 45.3514 7.37689C45.1553 6.97249 45.1113 6.51106 45.2274 6.07689C45.2796 5.83401 45.3808 5.6043 45.5247 5.40178C45.6686 5.19925 45.8522 5.02815 46.0644 4.89889C46.272 4.77458 46.5027 4.69381 46.7425 4.66149C46.9824 4.62917 47.2263 4.64598 47.4594 4.71089ZM47.4284 4.89689C47.2738 4.86469 47.1133 4.8767 46.9653 4.93153C46.8173 4.98636 46.6877 5.08179 46.5914 5.20689C46.3662 5.54561 46.2083 5.9245 46.1264 6.32289C46.0001 6.77932 46.0001 7.26146 46.1264 7.71789C46.1712 7.83407 46.2469 7.93584 46.3452 8.0123C46.4435 8.08876 46.5607 8.13702 46.6844 8.15189C46.8388 8.19058 47.0015 8.17973 47.1494 8.12089C47.3524 8.03828 47.518 7.88379 47.6144 7.68689C47.7719 7.39476 47.8867 7.08158 47.9554 6.75689C48.0464 6.4132 48.0882 6.05832 48.0794 5.70289C48.0711 5.49795 47.9947 5.30162 47.8624 5.14489C47.7545 5.01005 47.5993 4.92136 47.4284 4.89689Z" fill="white"/>
<path d="M48.7614 8.77206L48.7924 8.67905L48.9164 8.71006C48.9968 8.73383 49.0806 8.7443 49.1644 8.74105C49.22 8.71711 49.2721 8.68584 49.3194 8.64806C49.3757 8.55136 49.4175 8.44691 49.4434 8.33805L50.0944 6.07505C50.1357 5.96613 50.1567 5.85055 50.1564 5.73405C50.1564 5.67205 50.1254 5.64106 50.0634 5.57906C50.0027 5.52002 49.928 5.47735 49.8464 5.45506L49.7224 5.42406L49.7534 5.33105L51.3034 5.76506C51.6483 5.86303 51.9735 6.02039 52.2644 6.23006C52.5296 6.44145 52.7154 6.7365 52.7914 7.06705C52.8734 7.40462 52.8627 7.75808 52.7604 8.09005C52.6951 8.32323 52.5903 8.54344 52.4504 8.74105C52.3299 8.90806 52.1834 9.0546 52.0164 9.17506C51.8536 9.26897 51.675 9.33203 51.4894 9.36106C51.2735 9.3884 51.0559 9.39876 50.8384 9.39206C50.665 9.38543 50.4948 9.34322 50.3384 9.26805L48.7614 8.77206ZM50.9934 5.88906L50.2184 8.58905C50.1925 8.68081 50.1717 8.77396 50.1564 8.86806C50.1564 8.89906 50.1874 8.93006 50.2184 8.96106C50.2732 9.00475 50.3365 9.03643 50.4044 9.05405C50.5263 9.10184 50.6582 9.11837 50.7882 9.10212C50.9181 9.08588 51.042 9.03739 51.1484 8.96106C51.4755 8.66526 51.7029 8.27539 51.7994 7.84505C51.9179 7.48559 51.9498 7.10319 51.8924 6.72906C51.8541 6.5137 51.745 6.31729 51.5824 6.17105C51.4132 6.02847 51.2105 5.93141 50.9934 5.88906Z" fill="white"/>
<path d="M57.2554 7.71777L57.2244 7.81076C57.1341 7.77889 57.0356 7.77889 56.9454 7.81076C56.7293 7.92648 56.5309 8.07265 56.3564 8.24477L55.1784 9.20576L54.8994 10.0118C54.8542 10.1211 54.8229 10.2356 54.8064 10.3528C54.8064 10.4148 54.8374 10.4458 54.8684 10.5078C54.8894 10.5399 54.9167 10.5675 54.9487 10.5888C54.9807 10.6101 55.0166 10.6247 55.0544 10.6318L55.2404 10.6938L55.2094 10.7868L53.3184 10.1048L53.3494 10.0118L53.5354 10.0738C53.6158 10.0975 53.6996 10.108 53.7834 10.1048C53.8454 10.1048 53.8764 10.0738 53.9384 10.0118C54.0104 9.9199 54.0631 9.81447 54.0934 9.70176L54.3414 9.01976L54.0624 7.28376C54.0476 7.06958 53.9952 6.85969 53.9074 6.66376C53.8418 6.59426 53.7691 6.53191 53.6904 6.47776L53.7214 6.38477L55.3334 6.97377L55.3024 7.06676L55.2404 7.03577C55.1685 7.01358 55.0936 7.00311 55.0184 7.00476C54.9564 7.00476 54.9254 7.03576 54.9254 7.06676C54.9085 7.24298 54.9189 7.42075 54.9564 7.59377L55.1734 8.92677L56.1344 8.12077C56.2919 8.01401 56.4276 7.87826 56.5344 7.72076C56.5654 7.68976 56.5344 7.62776 56.5034 7.59676C56.433 7.5062 56.335 7.44094 56.2244 7.41077L56.2554 7.31776L57.2554 7.71777Z" fill="white"/>
</svg>
