<svg width="45" height="51" viewBox="0 0 45 51" fill="none" xmlns="http://www.w3.org/2000/svg">
<path d="M42.0628 27.8634H2.64014C1.18274 27.8634 0 26.6807 0 25.2233V25.1224C0 23.665 1.18274 22.4823 2.64014 22.4823H42.0684C43.5258 22.4823 44.7085 23.665 44.7085 25.1224V25.2233C44.7085 26.6807 43.5258 27.8634 42.0684 27.8634" fill="white"/>
<path d="M42.7466 30.0216V32.5496C42.7466 33.5081 42.0291 34.2985 41.0818 34.3938L37.9036 34.9263C37.5953 35.9409 37.1861 36.9218 36.6872 37.8523L38.5874 40.5093C39.1704 41.2211 39.1143 42.2862 38.4417 42.9588L34.8654 46.5351C34.1928 47.2133 33.1222 47.2638 32.3823 46.6584L29.7533 44.7862C28.8172 45.2851 27.8363 45.6886 26.8273 46.0025L26.2892 49.22C26.1995 50.1281 25.4092 50.8456 24.4506 50.8456H19.389C18.4305 50.8456 17.6401 50.1281 17.5448 49.1808L17.0123 46.0025C16.0033 45.6942 15.0168 45.2851 14.0863 44.7862L11.4293 46.6808C10.7231 47.2638 9.65804 47.2077 8.97979 46.5351L5.40356 42.9588C4.72531 42.2862 4.67486 41.2155 5.28024 40.4756L7.15244 37.8523C6.65356 36.9162 6.24436 35.9297 5.93607 34.9263L2.71858 34.3882C1.8049 34.2985 1.09302 33.5081 1.09302 32.5496V30.0216C1.09302 29.6965 1.35647 29.4386 1.68158 29.4386C2.0067 29.4386 2.26454 29.7021 2.26454 30.0216V32.5496C2.26454 32.9028 2.528 33.1886 2.87553 33.2279L6.49661 33.8277C6.72082 33.8669 6.90019 34.0294 6.96185 34.2481C7.29257 35.414 7.75782 36.5407 8.35759 37.6113C8.4697 37.8075 8.45288 38.0541 8.32396 38.2391L6.21073 41.1931C5.96409 41.4958 5.98652 41.8882 6.23315 42.1348L9.81499 45.7111C10.0616 45.9577 10.454 45.9801 10.7231 45.7559L13.7107 43.6203C13.8957 43.4857 14.1423 43.4745 14.3385 43.5866C15.4036 44.1808 16.5302 44.6516 17.7018 44.9824C17.9204 45.044 18.0829 45.2234 18.1222 45.4476L18.7163 49.0294C18.7556 49.4162 19.0471 49.6797 19.4002 49.6797H24.4619C24.815 49.6797 25.1065 49.4162 25.1401 49.0687L25.7455 45.4476C25.7847 45.2234 25.9473 45.044 26.1659 44.9824C27.3318 44.6516 28.4641 44.1864 29.5235 43.5866C29.7197 43.4745 29.9663 43.4913 30.1513 43.6203L33.1054 45.7279C33.408 45.9745 33.8004 45.9521 34.0471 45.7055L37.6289 42.1292C37.8755 41.8826 37.8979 41.4902 37.6737 41.2155L35.5381 38.2279C35.4036 38.0429 35.3923 37.7963 35.5045 37.6001C36.0986 36.5407 36.5695 35.414 36.9002 34.2368C36.9619 34.0182 37.1412 33.8557 37.3654 33.8164L40.9473 33.2167C41.3341 33.1774 41.5975 32.886 41.5975 32.5384V30.0104C41.5975 29.6853 41.861 29.4274 42.1861 29.4274C42.5112 29.4274 42.769 29.6909 42.769 30.0104" fill="#00B3D1"/>
<path d="M21.917 41.9441C28.4921 41.9441 33.8397 36.5966 33.8397 30.0215C33.8397 29.6964 33.5762 29.4329 33.2511 29.4329C32.926 29.4329 32.6681 29.6964 32.6681 30.0215C32.6681 35.9464 27.8475 40.7726 21.917 40.7726C15.9865 40.7726 11.1659 35.952 11.1659 30.0215C11.1659 29.6964 10.9025 29.4329 10.5829 29.4329C10.2634 29.4329 9.99438 29.6964 9.99438 30.0215C9.99438 36.5966 15.3419 41.9441 21.917 41.9441Z" fill="#00B3D1"/>
<path d="M27.2534 4.38245L28.0718 8.12124C28.1559 8.4968 27.9148 8.87236 27.5337 8.95645C27.4832 8.96766 27.4328 8.97326 27.3823 8.97326C27.046 8.97326 26.7601 8.74344 26.6873 8.42393L25.0281 0.845459H19.8263L18.1671 8.42393C18.083 8.8051 17.7074 9.04613 17.3207 8.96205C16.9395 8.87797 16.6929 8.50241 16.777 8.12685L17.6066 4.33761C9.52359 6.43402 3.71642 13.4576 3.22314 21.7311H41.4743C41.0595 13.4856 35.3027 6.46205 27.2478 4.38245" fill="white"/>
</svg>
