<svg width="21" height="25" viewBox="0 0 21 25" fill="none" xmlns="http://www.w3.org/2000/svg">
<path d="M9.99122 19.594C9.99122 18.1602 10.5607 16.7852 11.5745 15.7714C12.5883 14.7576 13.9635 14.188 15.3972 14.188C16.831 14.188 18.2056 14.7576 19.2194 15.7714C20.2333 16.7852 20.8032 18.1602 20.8032 19.594C20.8032 21.0278 20.2333 22.4029 19.2194 23.4167C18.2056 24.4305 16.831 25 15.3972 25C13.9635 25 12.5883 24.4305 11.5745 23.4167C10.5607 22.4029 9.99122 21.0278 9.99122 19.594ZM10.7117 19.594C10.7131 20.8362 11.207 22.0272 12.0853 22.9055C12.9637 23.7839 14.155 24.2779 15.3972 24.2793C16.6393 24.2776 17.8298 23.7834 18.7081 22.9051C19.5864 22.0268 20.0806 20.8361 20.0822 19.594C20.0809 18.3518 19.5869 17.161 18.7086 16.2826C17.8302 15.4043 16.6394 14.9102 15.3972 14.9089C14.1554 14.9105 12.9647 15.4048 12.0868 16.2831C11.209 17.1615 10.7152 18.3521 10.7142 19.594H10.7117ZM2.13109 24.1695C1.95656 24.1697 1.78353 24.1354 1.62227 24.0686C1.46101 24.0018 1.31473 23.904 1.19138 23.7805C1.06803 23.657 0.970373 23.5103 0.903783 23.349C0.837193 23.1876 0.802886 23.0148 0.803225 22.8403V4.7368C0.803498 4.38445 0.943599 4.04671 1.19289 3.79771C1.44218 3.54871 1.78026 3.40879 2.1326 3.40893H4.15885C4.2224 3.40906 4.28521 3.42181 4.34388 3.44626C4.40254 3.47071 4.4559 3.50643 4.50075 3.55147C4.54559 3.5965 4.58113 3.64995 4.60533 3.70872C4.62952 3.76748 4.64166 3.83044 4.64153 3.89399C4.64139 4.02203 4.59078 4.14472 4.50024 4.23526C4.4097 4.3258 4.28689 4.37679 4.15885 4.37692H2.1326C2.06064 4.37679 1.99047 4.39788 1.93048 4.43764C1.87219 4.47705 1.82638 4.53227 1.79825 4.59677C1.77971 4.64152 1.76959 4.68937 1.76909 4.7378V22.8361C1.76892 22.9084 1.79087 22.979 1.83193 23.0385C1.87039 23.0973 1.92619 23.1429 1.99132 23.1692C2.03583 23.1885 2.08359 23.1983 2.1321 23.198H9.20938V23.2016C9.27293 23.2018 9.33574 23.2144 9.39441 23.2389C9.45307 23.2633 9.50643 23.299 9.55128 23.3441C9.59612 23.3891 9.63166 23.4425 9.65586 23.5013C9.68005 23.5601 9.6927 23.623 9.69256 23.6866C9.69242 23.8146 9.64131 23.9374 9.55077 24.028C9.46023 24.1185 9.33742 24.1694 9.20938 24.1695H2.13109ZM14.3102 22.1673L12.1879 20.0111C12.1357 19.958 12.0946 19.8952 12.0667 19.8262C12.0388 19.7571 12.0243 19.6832 12.025 19.6087C12.0257 19.5343 12.0411 19.4607 12.0703 19.3921C12.0994 19.3236 12.1418 19.2616 12.1949 19.2095C12.3021 19.1045 12.4467 19.0462 12.5967 19.0476C12.7467 19.0489 12.8902 19.1097 12.9954 19.2167L14.6722 20.9182L17.7568 17.0635C17.8032 17.0052 17.8606 16.9568 17.9258 16.9208C17.9909 16.8848 18.0624 16.8619 18.1364 16.8535C18.2104 16.8452 18.2851 16.8516 18.3566 16.8723C18.4282 16.8929 18.4951 16.9275 18.5532 16.974C18.6113 17.0205 18.6596 17.0779 18.6955 17.1432C18.7314 17.2084 18.7542 17.28 18.7624 17.3539C18.7706 17.4279 18.7641 17.5027 18.7433 17.5742C18.7225 17.6456 18.6878 17.7123 18.6412 17.7704L15.1564 22.124C15.1065 22.1862 15.0443 22.2372 14.9734 22.2736C14.9024 22.31 14.8242 22.3309 14.7446 22.3351C14.7338 22.3351 14.7253 22.3351 14.7139 22.3351C14.6393 22.3349 14.5656 22.32 14.4967 22.2912C14.4279 22.2624 14.3652 22.2203 14.3127 22.1673H14.3102ZM3.48058 21.2066C3.43946 21.2066 3.39893 21.1987 3.36092 21.1829C3.32291 21.1672 3.28844 21.1441 3.25936 21.1151C3.23028 21.086 3.20719 21.0514 3.19148 21.0134C3.17577 20.9754 3.16728 20.9347 3.16735 20.8936C3.16728 20.8525 3.17577 20.8117 3.19148 20.7737C3.20719 20.7357 3.23028 20.7011 3.25936 20.672C3.28844 20.6429 3.32291 20.6199 3.36092 20.6042C3.39893 20.5885 3.43946 20.5804 3.48058 20.5805H7.55671C7.63969 20.5806 7.71926 20.6137 7.77793 20.6724C7.83661 20.731 7.86981 20.8106 7.86994 20.8936C7.86981 20.9766 7.83661 21.056 7.77793 21.1147C7.71926 21.1734 7.63969 21.2064 7.55671 21.2066H3.48058ZM3.48058 19.072C3.43934 19.0718 3.39847 19.0636 3.36042 19.0477C3.32237 19.0318 3.28792 19.0085 3.25885 18.9792C3.22979 18.95 3.20663 18.9153 3.19098 18.8771C3.17532 18.839 3.16721 18.7981 3.16735 18.7569C3.16816 18.6745 3.20172 18.5958 3.26036 18.5379C3.31901 18.48 3.39819 18.4477 3.48058 18.448H7.55671C7.63902 18.448 7.71784 18.4803 7.77643 18.5381C7.83501 18.596 7.86886 18.6746 7.86994 18.7569C7.86995 18.8401 7.83708 18.9199 7.77844 18.979C7.71979 19.038 7.63992 19.0714 7.55671 19.072H3.48058ZM3.48058 16.9354C3.43946 16.9354 3.39893 16.9273 3.36092 16.9116C3.32291 16.8959 3.28844 16.8728 3.25936 16.8437C3.23028 16.8147 3.20719 16.7802 3.19148 16.7422C3.17577 16.7042 3.16728 16.6634 3.16735 16.6223C3.16728 16.5811 3.17577 16.5405 3.19148 16.5025C3.20719 16.4645 3.23028 16.4299 3.25936 16.4008C3.28844 16.3717 3.32291 16.3486 3.36092 16.3329C3.39893 16.3172 3.43946 16.3092 3.48058 16.3093H7.55671C7.63969 16.3094 7.71926 16.3424 7.77793 16.401C7.83661 16.4597 7.86981 16.5393 7.86994 16.6223C7.86981 16.7052 7.83661 16.7848 7.77793 16.8435C7.71926 16.9022 7.63969 16.9352 7.55671 16.9354H3.48058ZM3.48058 14.8008C3.43934 14.8006 3.39847 14.7923 3.36042 14.7764C3.32237 14.7605 3.28792 14.7373 3.25885 14.708C3.22979 14.6788 3.20663 14.6441 3.19098 14.6059C3.17532 14.5678 3.16721 14.5269 3.16735 14.4857C3.16816 14.4033 3.20172 14.3246 3.26036 14.2667C3.31901 14.2088 3.39819 14.1764 3.48058 14.1767H9.34614C9.42873 14.1764 9.50839 14.2087 9.56737 14.2666C9.62634 14.3244 9.66003 14.4031 9.66139 14.4857C9.66125 14.5692 9.62794 14.6492 9.56887 14.7083C9.50981 14.7673 9.42966 14.8006 9.34614 14.8008H3.48058ZM17.3063 12.4999V4.73881C17.3052 4.66673 17.2834 4.59657 17.2435 4.53656C17.2039 4.47853 17.1483 4.43304 17.0836 4.40571C17.0391 4.38622 16.9913 4.37644 16.9428 4.37692H14.6259C14.5624 4.37706 14.4992 4.36467 14.4404 4.34047C14.3817 4.31627 14.3285 4.28074 14.2835 4.23589C14.2385 4.19104 14.2028 4.13768 14.1785 4.07902C14.1541 4.02036 14.1413 3.95752 14.1413 3.89399C14.1411 3.83031 14.1537 3.76721 14.178 3.70834C14.2022 3.64947 14.238 3.59602 14.283 3.55096C14.328 3.50591 14.3811 3.47011 14.4399 3.44576C14.4988 3.4214 14.5623 3.40886 14.6259 3.40893H16.9428C17.1174 3.40886 17.2903 3.4432 17.4516 3.50999C17.6129 3.57677 17.7591 3.67476 17.8825 3.79821C18.006 3.92167 18.1043 4.06816 18.1711 4.22948C18.2379 4.3908 18.2722 4.56371 18.2722 4.7383V12.4993C18.2724 12.5628 18.2596 12.6259 18.2355 12.6847C18.2113 12.7435 18.1758 12.797 18.1309 12.842C18.086 12.8871 18.0327 12.9228 17.974 12.9472C17.9153 12.9717 17.8526 12.9843 17.789 12.9843C17.6609 12.9838 17.5384 12.9323 17.4481 12.8414C17.3578 12.7505 17.3074 12.6274 17.3078 12.4993L17.3063 12.4999ZM8.62363 12.7537V10.7802H6.64816V8.63631H8.62363V6.66085H10.766V8.63631H12.7395V10.7802H10.766V12.7537H8.62363ZM5.54906 5.57445L5.55309 5.57093C5.39734 5.46716 5.26983 5.3263 5.18203 5.16103C5.09422 4.99575 5.0486 4.81119 5.04979 4.62405V3.31063C5.04979 3.16069 5.07938 3.01223 5.13678 2.87371C5.19417 2.73519 5.2781 2.6094 5.38415 2.5034C5.4902 2.3974 5.61616 2.31323 5.75471 2.2559C5.89325 2.19857 6.04169 2.1691 6.19163 2.16917H7.68743C7.75923 1.92239 7.88506 1.69479 8.05598 1.50285C8.2269 1.31091 8.43858 1.15945 8.67542 1.05964C9.09803 0.88146 9.57443 0.878512 9.99926 1.05134C10.4241 1.22417 10.7628 1.55865 10.941 1.98125C10.9662 2.04201 10.9873 2.10636 11.0069 2.16917H12.6374C12.9399 2.16944 13.2296 2.28986 13.4434 2.5039C13.6571 2.71795 13.7774 3.00813 13.7772 3.31063V4.6297C13.7774 4.77961 13.7481 4.92813 13.6908 5.06663C13.6334 5.20512 13.549 5.3309 13.4429 5.43681C13.3368 5.54271 13.2109 5.62656 13.0723 5.68368C12.9337 5.74079 12.7853 5.77006 12.6354 5.76965H6.18107C5.95624 5.76949 5.73691 5.70122 5.55158 5.57394L5.54906 5.57445ZM6.09007 3.17111C6.06213 3.19005 6.04027 3.21666 6.02722 3.24778C6.01851 3.26887 6.01362 3.29147 6.01314 3.31428L6.00962 4.6292C6.00811 4.66378 6.01809 4.69786 6.03828 4.72599C6.05713 4.754 6.08402 4.77588 6.11521 4.78884C6.13669 4.79808 6.1597 4.80289 6.18308 4.80316H12.6304C12.6932 4.78438 12.7486 4.74705 12.7898 4.69607C12.799 4.67517 12.804 4.65258 12.8038 4.6297V3.31478C12.8037 3.28019 12.7928 3.24647 12.7732 3.21799C12.7542 3.1901 12.7278 3.16825 12.6967 3.15514C12.6757 3.14604 12.6532 3.14111 12.6304 3.14069H11.0018C10.9297 3.38772 10.8034 3.61571 10.6323 3.80789C10.4611 4.00007 10.2494 4.15172 10.0123 4.25185C9.80332 4.33987 9.57896 4.38579 9.35217 4.38711C9.12538 4.38842 8.90053 4.3451 8.6905 4.25952C8.48047 4.17394 8.28916 4.04778 8.12788 3.88834C7.96659 3.72889 7.83826 3.53928 7.75028 3.33024C7.7236 3.26877 7.70146 3.20536 7.68391 3.14069H6.18811C6.1537 3.14095 6.12041 3.15158 6.09208 3.17111H6.09007ZM8.92178 2.02613C8.79965 2.10882 8.70392 2.22498 8.64625 2.36073C8.59695 2.47665 8.5773 2.60302 8.58944 2.7284C8.60158 2.85378 8.64501 2.97417 8.71564 3.07847C8.7982 3.20072 8.91465 3.29636 9.0505 3.35387C9.16626 3.40222 9.29216 3.42118 9.41703 3.40905C9.5419 3.39692 9.66167 3.35408 9.76597 3.28436C9.88831 3.20177 9.98422 3.08559 10.042 2.94975C10.0902 2.83357 10.109 2.70727 10.0968 2.58209C10.0846 2.45691 10.0418 2.3367 9.97211 2.23202C9.88914 2.11014 9.77281 2.0146 9.63725 1.95662C9.54416 1.91828 9.4443 1.8985 9.34362 1.89842C9.19327 1.89768 9.04646 1.9417 8.92128 2.025L8.92178 2.02613Z" fill="white"/>
</svg>
