<svg width="58" height="79" viewBox="0 0 58 79" fill="none" xmlns="http://www.w3.org/2000/svg">
<path d="M5.95713 72.7382C5.95713 72.7382 3.77876 58.3685 3.22276 49.0985C3.29276 48.5245 2.00137 47.46 1.94737 43.621C1.66502 43.5357 1.41825 43.3631 1.24034 43.1278C1.06242 42.8926 0.964272 42.6073 0.959085 42.3124C0.723085 20.0894 8.92982 17.7001 12.6368 17.7001C15.9458 17.9841 18.644 19.9663 20.336 26.4413C22.028 32.9163 29.1155 33.0122 28.9845 33.1142C28.9845 33.1142 27.6738 33.8431 27.7208 34.4481C27.7678 35.0531 29.1564 35.5331 29.1564 35.5331H31.7774C31.7774 35.5331 33.2548 35.7596 33.3438 37.0526C33.4328 38.3456 33.158 39.3289 31.92 39.4179C22.668 39.9519 19.8687 36.7186 19.7677 36.5546C19.4827 38.3876 19.1325 41.0744 18.9435 42.3134C18.9168 42.6889 18.7495 43.0404 18.4747 43.2978C18.1999 43.5551 17.8375 43.699 17.461 43.7011H17.3692C15.5532 53.9601 16.9571 72.7382 16.9571 72.7382C16.9571 74.1969 16.3773 75.5954 15.3458 76.6269C14.3144 77.6583 12.9158 78.2382 11.4571 78.2382C9.99844 78.2382 8.59991 77.6583 7.56846 76.6269C6.53701 75.5954 5.95713 74.1969 5.95713 72.7382ZM6.03916 8.2167C6.03897 6.6388 6.50644 5.09715 7.38291 3.78506C8.25938 2.47298 9.50528 1.44963 10.963 0.845608C12.4207 0.241589 14.0247 0.0838674 15.5724 0.391506C17.12 0.699145 18.5424 1.45852 19.6583 2.57412C20.7742 3.68973 21.5339 5.11154 21.8419 6.65908C22.1499 8.20663 21.9924 9.81059 21.3888 11.2685C20.7851 12.7263 19.7631 13.9727 18.4513 14.8495C17.1394 15.7263 15.5956 16.194 14.0177 16.1942C11.9025 16.1929 9.87441 15.3513 8.37901 13.8554C6.88361 12.3594 6.0436 10.3309 6.04307 8.21572L6.03916 8.2167Z" fill="#156CC9"/>
<path d="M42.132 72.7375C42.132 72.7375 43.5268 53.9937 41.7238 43.7287C41.4146 43.6417 41.1366 43.4677 40.923 43.2278C40.7095 42.9878 40.5693 42.6914 40.5187 42.3743C40.2867 40.2923 40.0903 38.9742 39.9543 37.1252C39.9013 37.0132 38.5748 39.0762 31.5558 39.4202C32.0055 39.3084 32.4062 39.0529 32.6965 38.6916C32.9867 38.3304 33.149 37.8834 33.1613 37.4202C33.1556 36.9855 32.9879 36.5693 32.6906 36.2522C32.3933 35.935 31.9893 35.7399 31.5558 35.7063C31.5558 35.7063 28.8384 35.7003 28.7804 35.7063C28.595 35.7128 28.4105 35.6795 28.2394 35.6077C28.0683 35.5358 27.9134 35.4273 27.7883 35.2903C27.6631 35.1532 27.5709 34.9906 27.5148 34.8137C27.4587 34.6368 27.4407 34.45 27.464 34.2659C27.4866 33.9386 27.6375 33.6328 27.884 33.4162C28.1304 33.1997 28.453 33.0898 28.7804 33.1096C30.9564 32.9496 38.2336 33.4095 39.9406 27.5705C41.6476 21.7315 41.6555 18.2709 46.7785 17.8039C50.4915 17.8039 57.9699 18.3036 57.9699 42.4036C57.9661 42.6684 57.8855 42.9267 57.7394 43.1477C57.5934 43.3687 57.3878 43.5432 57.1457 43.6506C57.0817 47.4506 55.7993 48.5151 55.8703 49.0871C55.3173 58.3561 53.1359 72.7317 53.1359 72.7317C53.1359 74.1904 52.556 75.5889 51.5246 76.6204C50.4931 77.6518 49.0946 78.2317 47.6359 78.2317C46.1772 78.2317 44.7787 77.6518 43.7472 76.6204C42.7158 75.5889 42.1359 74.1904 42.1359 72.7317L42.132 72.7375ZM37.9269 8.21117C37.9277 6.63364 38.3956 5.09179 39.2726 3.78051C40.1496 2.46922 41.397 1.44811 42.8547 0.84496C44.3123 0.241813 45.915 0.0835895 47.4621 0.391835C49.0092 0.700081 50.4309 1.46064 51.5461 2.57641C52.6613 3.69217 53.4202 5.11311 53.7277 6.66039C54.0352 8.20767 53.8765 9.81141 53.2726 11.2688C52.6688 12.7262 51.6469 13.9725 50.3351 14.8489C49.0234 15.7252 47.481 16.1926 45.9035 16.1926C43.7877 16.1921 41.7588 15.351 40.2629 13.8547C38.7669 12.3584 37.9269 10.3289 37.9269 8.21312V8.21117Z" fill="#01B4D2"/>
</svg>
