<svg width="76" height="76" viewBox="0 0 76 76" fill="none" xmlns="http://www.w3.org/2000/svg">
<path d="M21.5717 65.9165C14.9464 63.1217 9.49211 58.1208 6.13425 51.7624C2.77638 45.4039 1.7218 38.0796 3.14946 31.0321C4.57711 23.9846 8.39906 17.6481 13.9668 13.0977C19.5345 8.54739 26.5051 6.06349 33.6957 6.06751C38.4647 6.05407 43.172 7.14633 47.4477 9.25851C51.5739 11.3018 55.2013 14.226 58.0737 17.8245L58.1277 17.8925L55.2377 20.9365L55.1667 20.8425C54.4341 19.8854 53.639 18.9778 52.7867 18.1255C48.1399 13.493 41.9595 10.7194 35.4097 10.3271C28.8599 9.93484 22.3927 11.9509 17.2261 15.9957C12.0596 20.0405 8.55018 25.8347 7.35895 32.2872C6.16772 38.7397 7.37686 45.4051 10.7586 51.028C14.1404 56.6509 19.4615 60.8433 25.7196 62.8156C31.9777 64.7878 38.7409 64.4038 44.7356 61.7359C50.7303 59.068 55.5426 54.3002 58.2661 48.3307C60.9897 42.3611 61.4367 35.6017 59.5227 29.3255L59.5057 29.2695L62.7207 25.8885L62.7777 26.0365C64.9659 31.7413 65.429 37.9635 64.1094 43.9293C62.7899 49.8952 59.7458 55.3416 55.3558 59.5914C50.9658 63.8412 45.4235 66.7069 39.4179 67.8322C33.4124 68.9574 27.2085 68.2927 21.5777 65.9205L21.5717 65.9165ZM16.1347 33.5875C15.6962 33.1796 15.4377 32.6142 15.416 32.0157C15.3943 31.4172 15.6113 30.8345 16.0192 30.396C16.4271 29.9575 16.9925 29.6989 17.5911 29.6773C18.1896 29.6556 18.7722 29.8726 19.2107 30.2805L35.2027 45.1525L68.7477 9.84651C69.1603 9.41182 69.7286 9.15881 70.3277 9.14315C70.9268 9.12749 71.5075 9.35046 71.9422 9.76301C72.3769 10.1755 72.6299 10.7439 72.6456 11.343C72.6612 11.942 72.4383 12.5228 72.0257 12.9575L35.3987 51.5035L16.1347 33.5875Z" fill="#1A8CFF"/>
</svg>
