<svg width="225" height="59" viewBox="0 0 225 59" fill="none" xmlns="http://www.w3.org/2000/svg">
<path d="M48.7397 31.6013H3.24507C1.5689 31.6013 0.200195 30.2326 0.200195 28.5565V28.4375C0.200195 26.7514 1.5689 25.3926 3.24507 25.3926H48.7397C50.4258 25.3926 51.7846 26.7514 51.7846 28.4375V28.5565C51.7846 30.2426 50.4159 31.6013 48.7397 31.6013Z" fill="#151349"/>
<path d="M49.5233 34.0906V37.0065C49.5233 38.1075 48.7001 39.0199 47.5991 39.129L43.9294 39.744C43.5724 40.9143 43.0963 42.045 42.531 43.126L44.7229 46.1908C45.3973 47.014 45.3279 48.2438 44.5543 49.0174L40.4283 53.1434C39.6547 53.9269 38.4149 53.9864 37.562 53.2822L34.527 51.1201C33.4459 51.6953 32.3153 52.1615 31.1449 52.5185L30.5201 56.2379C30.4209 57.2892 29.5084 58.1124 28.3976 58.1124H22.5558C21.4549 58.1124 20.5424 57.2892 20.4333 56.1883L19.8184 52.5185C18.658 52.1615 17.5174 51.6953 16.4363 51.1201L13.3716 53.312C12.5583 53.9864 11.3284 53.9269 10.5449 53.1434L6.41895 49.0174C5.63541 48.2339 5.5759 47.004 6.28009 46.1511L8.44225 43.1161C7.867 42.035 7.40085 40.9044 7.04379 39.734L3.32448 39.1191C2.27316 39.0199 1.44995 38.1075 1.44995 36.9966V34.0807C1.44995 33.7038 1.75741 33.4062 2.12439 33.4062C2.49136 33.4062 2.79882 33.7137 2.79882 34.0807V36.9966C2.79882 37.4033 3.10628 37.7405 3.50301 37.7802L7.67855 38.4744C7.93643 38.5141 8.14471 38.7025 8.21413 38.9604C8.59102 40.2994 9.13652 41.6086 9.82087 42.8384C9.94981 43.0665 9.92997 43.3542 9.7812 43.5624L7.34134 46.9743C7.06363 47.3214 7.08346 47.7777 7.37109 48.0653L11.497 52.1912C11.7847 52.4789 12.231 52.4987 12.5484 52.2408L15.9999 49.7811C16.2181 49.6224 16.4958 49.6125 16.7239 49.7415C17.9538 50.4258 19.253 50.9713 20.6019 51.3482C20.8499 51.4176 21.0383 51.6259 21.0879 51.8838L21.7723 56.0197C21.8218 56.466 22.1591 56.7635 22.5558 56.7635H28.3976C28.8042 56.7635 29.1414 56.4561 29.1811 56.0593L29.8754 51.8838C29.9151 51.6259 30.1035 51.4176 30.3614 51.3482C31.7102 50.9713 33.0095 50.4258 34.2394 49.7415C34.4675 49.6125 34.7452 49.6324 34.9634 49.7811L38.3753 52.2111C38.7224 52.4987 39.1786 52.469 39.4662 52.1813L43.5922 48.0554C43.8798 47.7677 43.8997 47.3214 43.6418 47.004L41.1821 43.5624C41.0333 43.3442 41.0135 43.0665 41.1424 42.8384C41.8268 41.6185 42.3723 40.3093 42.7492 38.9604C42.8186 38.7125 43.0269 38.524 43.2847 38.4744L47.4206 37.7901C47.8669 37.7405 48.1645 37.4132 48.1645 37.0065V34.0906C48.1645 33.7137 48.4719 33.4162 48.8389 33.4162C49.2059 33.4162 49.5133 33.7236 49.5133 34.0906" fill="white"/>
<path d="M25.4916 47.8479C33.079 47.8479 39.2481 41.6788 39.2481 34.0914C39.2481 33.7145 38.9406 33.417 38.5736 33.417C38.2067 33.417 37.8992 33.7245 37.8992 34.0914C37.8992 40.935 32.3351 46.499 25.4916 46.499C18.6481 46.499 13.084 40.935 13.084 34.0914C13.084 33.7145 12.7765 33.417 12.4095 33.417C12.0426 33.417 11.7351 33.7245 11.7351 34.0914C11.7351 41.6788 17.9042 47.8479 25.4916 47.8479Z" fill="white"/>
<path d="M31.6512 4.49531L32.5934 8.80971C32.6926 9.24611 32.4149 9.67259 31.9785 9.77177C31.919 9.78169 31.8595 9.7916 31.8099 9.7916C31.4231 9.7916 31.0858 9.52381 31.0065 9.15684L29.0824 0.418945H23.0819L21.1677 9.15684C21.0685 9.59324 20.6321 9.87095 20.1957 9.78169C19.7593 9.6825 19.4717 9.25602 19.5709 8.81962L20.5329 4.44572C11.19 6.86575 4.49527 14.9689 3.92993 24.5201H48.0657C47.5897 15.0086 40.9445 6.90542 31.6512 4.49531Z" fill="#151349"/>
<path d="M79.2208 32.6753L82.2918 17.623H85.7377L81.124 37.6062H77.8079L74.0016 23.0153L70.1232 37.6062H66.7927L62.179 17.623H65.6248L68.7246 32.6464L72.5454 17.623H75.4578L79.2353 32.6753H79.2208Z" fill="#151349"/>
<path d="M86.9197 30.0674C86.9197 28.6112 87.208 27.2992 87.7848 26.1313C88.3615 24.9635 89.1689 24.0696 90.2214 23.4352C91.2595 22.8008 92.4706 22.498 93.8258 22.498C95.8299 22.498 97.4591 23.1468 98.6991 24.43C99.9534 25.7276 100.617 27.4289 100.718 29.5628V30.3413C100.718 31.812 100.444 33.1096 99.8813 34.263C99.319 35.4164 98.5116 36.3103 97.4591 36.9447C96.4066 37.5791 95.1955 37.8963 93.8258 37.8963C91.7353 37.8963 90.0484 37.2042 88.794 35.8057C87.5397 34.4072 86.9053 32.5473 86.9053 30.226V30.0674H86.9197ZM90.2502 30.3558C90.2502 31.8841 90.5674 33.0807 91.2018 33.9458C91.8362 34.8109 92.7157 35.2434 93.8403 35.2434C94.9648 35.2434 95.8443 34.8109 96.4643 33.9314C97.0987 33.0519 97.4015 31.7687 97.4015 30.0674C97.4015 28.568 97.0843 27.3713 96.4355 26.4918C95.7867 25.6123 94.9072 25.1798 93.8114 25.1798C92.7157 25.1798 91.8506 25.6123 91.2162 26.4774C90.5818 27.3424 90.2502 28.64 90.2502 30.3558Z" fill="#151349"/>
<path d="M111.329 25.8141C110.896 25.7421 110.435 25.6988 109.974 25.6988C108.445 25.6988 107.422 26.2899 106.888 27.4578V37.6223H103.558V22.772H106.744L106.83 24.43C107.638 23.1468 108.748 22.498 110.175 22.498C110.651 22.498 111.04 22.5557 111.358 22.6855V25.8141H111.329Z" fill="#151349"/>
<path d="M118.252 31.2482L116.767 32.7765V37.6209H113.437V16.542H116.767V28.7107L117.805 27.4131L121.914 22.7849H125.922L120.4 28.9702L126.514 37.6353H122.664L118.252 31.2626V31.2482Z" fill="#151349"/>
<path d="M144.374 32.9658H136.632L135.017 37.6228H131.413L138.968 17.6396H142.082L149.651 37.6228H146.033L144.403 32.9658H144.374ZM137.612 30.1687H143.408L140.51 21.8785L137.612 30.1687Z" fill="white"/>
<path d="M159.901 33.5881C159.901 32.9969 159.655 32.5356 159.165 32.2328C158.675 31.9156 157.868 31.6416 156.729 31.411C155.59 31.1803 154.652 30.8775 153.888 30.5026C152.216 29.6952 151.394 28.5274 151.394 26.9991C151.394 25.7159 151.942 24.649 153.009 23.7839C154.076 22.9189 155.46 22.4863 157.132 22.4863C158.906 22.4863 160.347 22.9189 161.429 23.7984C162.525 24.6778 163.072 25.8168 163.072 27.2154H159.742C159.742 26.581 159.497 26.0475 159.021 25.615C158.545 25.1825 157.911 24.9806 157.132 24.9806C156.397 24.9806 155.806 25.1536 155.344 25.4852C154.883 25.8168 154.652 26.2782 154.652 26.8405C154.652 27.3596 154.869 27.7488 155.301 28.0372C155.734 28.3255 156.599 28.6139 157.911 28.9023C159.223 29.1906 160.247 29.5366 160.996 29.9259C161.746 30.3296 162.294 30.8054 162.654 31.3677C163.015 31.93 163.202 32.6076 163.202 33.4006C163.202 34.7415 162.654 35.8228 161.544 36.6446C160.434 37.4665 158.992 37.8846 157.19 37.8846C155.979 37.8846 154.883 37.6683 153.932 37.2213C152.98 36.7744 152.245 36.1833 151.711 35.4047C151.178 34.6261 150.918 33.8043 150.918 32.9248H154.162C154.205 33.7178 154.508 34.3234 155.056 34.7415C155.604 35.174 156.339 35.3759 157.233 35.3759C158.127 35.3759 158.776 35.2029 159.237 34.8712C159.699 34.5396 159.929 34.1071 159.929 33.5592L159.901 33.5881Z" fill="white"/>
<path d="M174.407 33.5881C174.407 32.9969 174.162 32.5356 173.672 32.2328C173.181 31.9156 172.374 31.6416 171.235 31.411C170.096 31.1803 169.159 30.8775 168.395 30.5026C166.722 29.6952 165.9 28.5274 165.9 26.9991C165.9 25.7159 166.448 24.649 167.515 23.7839C168.582 22.9189 169.966 22.4863 171.639 22.4863C173.412 22.4863 174.854 22.9189 175.935 23.7984C177.031 24.6778 177.579 25.8168 177.579 27.2154H174.248C174.248 26.581 174.003 26.0475 173.527 25.615C173.052 25.1825 172.417 24.9806 171.639 24.9806C170.903 24.9806 170.312 25.1536 169.851 25.4852C169.389 25.8168 169.159 26.2782 169.159 26.8405C169.159 27.3596 169.375 27.7488 169.808 28.0372C170.24 28.3255 171.105 28.6139 172.417 28.9023C173.729 29.1906 174.753 29.5366 175.503 29.9259C176.252 30.3296 176.8 30.8054 177.161 31.3677C177.521 31.93 177.709 32.6076 177.709 33.4006C177.709 34.7415 177.161 35.8228 176.051 36.6446C174.94 37.4665 173.499 37.8846 171.696 37.8846C170.485 37.8846 169.389 37.6683 168.438 37.2213C167.486 36.7744 166.751 36.1833 166.218 35.4047C165.684 34.6261 165.425 33.8043 165.425 32.9248H168.669C168.712 33.7178 169.015 34.3234 169.562 34.7415C170.11 35.174 170.846 35.3759 171.74 35.3759C172.633 35.3759 173.282 35.2029 173.744 34.8712C174.205 34.5396 174.436 34.1071 174.436 33.5592L174.407 33.5881Z" fill="white"/>
<path d="M180.606 18.9109C180.606 18.3918 180.765 17.9737 181.096 17.6277C181.428 17.2816 181.889 17.123 182.495 17.123C183.1 17.123 183.562 17.2961 183.893 17.6277C184.225 17.9593 184.384 18.3918 184.384 18.9109C184.384 19.4299 184.225 19.8336 183.893 20.1652C183.562 20.4968 183.1 20.6698 182.495 20.6698C181.889 20.6698 181.428 20.4968 181.096 20.1652C180.765 19.8336 180.606 19.4155 180.606 18.9109ZM184.153 37.6252H180.822V22.7748H184.153V37.6252Z" fill="white"/>
<path d="M196.107 33.5881C196.107 32.9969 195.861 32.5356 195.371 32.2328C194.881 31.9156 194.074 31.6416 192.935 31.411C191.796 31.1803 190.859 30.8775 190.094 30.5026C188.422 29.6952 187.6 28.5274 187.6 26.9991C187.6 25.7159 188.148 24.649 189.215 23.7839C190.282 22.9189 191.666 22.4863 193.338 22.4863C195.112 22.4863 196.554 22.9189 197.635 23.7984C198.731 24.6778 199.279 25.8168 199.279 27.2154H195.948C195.948 26.581 195.703 26.0475 195.227 25.615C194.751 25.1825 194.117 24.9806 193.338 24.9806C192.603 24.9806 192.012 25.1536 191.551 25.4852C191.089 25.8168 190.859 26.2782 190.859 26.8405C190.859 27.3596 191.075 27.7488 191.507 28.0372C191.94 28.3255 192.805 28.6139 194.117 28.9023C195.429 29.1906 196.453 29.5366 197.202 29.9259C197.952 30.3296 198.5 30.8054 198.86 31.3677C199.221 31.93 199.408 32.6076 199.408 33.4006C199.408 34.7415 198.86 35.8228 197.75 36.6446C196.64 37.4665 195.198 37.8846 193.396 37.8846C192.185 37.8846 191.089 37.6683 190.138 37.2213C189.186 36.7744 188.451 36.1833 187.917 35.4047C187.384 34.6261 187.124 33.8043 187.124 32.9248H190.368C190.412 33.7178 190.714 34.3234 191.262 34.7415C191.81 35.174 192.545 35.3759 193.439 35.3759C194.333 35.3759 194.982 35.2029 195.443 34.8712C195.905 34.5396 196.135 34.1071 196.135 33.5592L196.107 33.5881Z" fill="white"/>
<path d="M206.472 19.1689V22.7734H209.096V25.2389H206.472V33.5291C206.472 34.0914 206.587 34.5095 206.804 34.7546C207.034 34.9997 207.424 35.1295 208 35.1295C208.39 35.1295 208.779 35.0862 209.168 34.9997V37.5805C208.404 37.7968 207.669 37.8977 206.977 37.8977C204.41 37.8977 203.127 36.4848 203.127 33.6589V25.2389H200.676V22.7734H203.127V19.1689H206.458H206.472Z" fill="white"/>
<path d="M216.94 15.6943V22.86H218.18V20.4955L218.064 17.338L220.169 22.86H221.063L223.183 17.338L223.053 20.4955V22.86H224.293V15.6943H222.678L220.616 21.1875L218.555 15.6943H216.94ZM216.003 15.6943H210.308V16.7036H212.528V22.8744H213.768V16.7036H216.003V15.6943Z" fill="white"/>
</svg>
