<svg width="70" height="66" viewBox="0 0 70 66" fill="none" xmlns="http://www.w3.org/2000/svg">
<g clip-path="url(#clip0_416_11653)">
<mask id="mask0_416_11653" style="mask-type:luminance" maskUnits="userSpaceOnUse" x="0" y="0" width="70" height="66">
<path d="M69.9947 0H0V66H69.9947V0Z" fill="white"/>
</mask>
<g mask="url(#mask0_416_11653)">
<path d="M53.6608 25.6238H16.3339C14.9541 25.6238 13.8344 24.5021 13.8344 23.1199V23.0242C13.8344 21.642 14.9541 20.5203 16.3339 20.5203H53.6608C55.0406 20.5203 56.1603 21.642 56.1603 23.0242V23.1199C56.1603 24.5021 55.0406 25.6238 53.6608 25.6238Z" fill="#1A1448"/>
<path d="M54.3082 27.6706V30.0681C54.3082 30.9772 53.629 31.7268 52.7322 31.8172L49.7233 32.3222C49.4314 33.2844 49.044 34.2147 48.5718 35.0972L50.3707 37.6171C50.9226 38.2922 50.8695 39.3023 50.2327 39.9402L46.8471 43.3319C46.2103 43.9752 45.1967 44.023 44.4962 43.4489L42.0127 41.6733C41.1265 42.1464 40.1979 42.5292 39.2427 42.8269L38.7332 45.8784C38.6483 46.7396 37.9001 47.4201 36.9926 47.4201H32.2007C31.2933 47.4201 30.5451 46.7396 30.4549 45.8412L29.9507 42.8269C28.9955 42.5345 28.0616 42.1464 27.1807 41.6733L24.6653 43.4702C23.9967 44.023 22.9884 43.9699 22.3463 43.3319L18.9607 39.9402C18.3186 39.3023 18.2708 38.2869 18.8439 37.5852L20.6163 35.0972C20.144 34.2094 19.7567 33.2738 19.4648 32.3222L16.4188 31.8118C15.5538 31.7268 14.8798 30.9772 14.8798 30.0681V27.6706C14.8798 27.3622 15.1293 27.1177 15.437 27.1177C15.7448 27.1177 15.9889 27.3675 15.9889 27.6706V30.0681C15.9889 30.4031 16.2383 30.6742 16.5674 30.7114L19.9955 31.2802C20.2077 31.3174 20.3775 31.4716 20.4359 31.6789C20.749 32.7847 21.1894 33.8532 21.7573 34.8686C21.8634 35.0547 21.8475 35.2886 21.7254 35.464L19.7248 38.2656C19.4913 38.5527 19.5125 38.9249 19.746 39.1588L23.137 42.5505C23.3705 42.7844 23.7419 42.8056 23.9967 42.593L26.8251 40.5675C27.0002 40.44 27.2337 40.4293 27.4195 40.5356C28.4277 41.0992 29.4944 41.5457 30.6034 41.8594C30.8104 41.9178 30.9643 42.0933 31.0014 42.3006L31.5639 45.6976C31.6011 46.0644 31.877 46.3143 32.2114 46.3143H37.0033C37.3376 46.3143 37.6082 46.0644 37.6454 45.7348L38.2185 42.3006C38.2556 42.088 38.4095 41.9178 38.6165 41.8594C39.7203 41.5457 40.7922 41.1045 41.7952 40.5356C41.9809 40.4293 42.2144 40.4453 42.3895 40.5675L45.1861 42.5664C45.4727 42.8003 45.8441 42.7791 46.0776 42.5451L49.4686 39.1534C49.7021 38.9195 49.7233 38.5474 49.511 38.2869L47.4892 35.4534C47.3618 35.278 47.3512 35.0441 47.4574 34.858C48.0199 33.8532 48.4656 32.7847 48.7787 31.6736C48.8371 31.4663 49.0069 31.3121 49.2192 31.2749L52.6101 30.7061C52.9763 30.6689 53.2257 30.3924 53.2257 30.0628V27.6652C53.2257 27.3569 53.4751 27.1124 53.7829 27.1124C54.0907 27.1124 54.3348 27.3622 54.3348 27.6652" fill="#00B3D1"/>
<path d="M34.5887 38.978C40.8134 38.978 45.876 33.9064 45.876 27.6706C45.876 27.3622 45.6266 27.1177 45.3188 27.1177C45.011 27.1177 44.7669 27.3675 44.7669 27.6706C44.7669 33.2897 40.2032 37.8669 34.5887 37.8669C28.9743 37.8669 24.4106 33.295 24.4106 27.6706C24.4106 27.3622 24.1612 27.1177 23.8587 27.1177C23.5562 27.1177 23.3015 27.3675 23.3015 27.6706C23.3015 33.9064 28.364 38.978 34.5887 38.978Z" fill="#00B3D1"/>
<path d="M39.6407 3.35449L40.4154 6.90036C40.495 7.25654 40.2668 7.60741 39.906 7.69247C39.8582 7.7031 39.8105 7.70842 39.7627 7.70842C39.4443 7.70842 39.1737 7.49046 39.1047 7.18212L37.5339 0H32.6094L31.0386 7.18212C30.959 7.54362 30.6034 7.77221 30.2373 7.69247C29.8764 7.61273 29.6429 7.25654 29.7225 6.90036L30.5079 3.30665C22.8557 5.29489 17.3581 11.956 16.8911 19.808H53.1036C52.7109 11.9879 47.261 5.32678 39.6354 3.35449" fill="#1A1448"/>
</g>
<path d="M63.9663 57.7227V58.1587H64.9215V60.8221H65.4522V58.1587H66.418V57.7227H63.9663ZM69.3048 57.7227L68.4133 60.0991L67.5218 57.7227H66.8266V60.8221H67.3626V59.8014L67.3095 58.4351L68.2223 60.8221H68.6097L69.5224 58.4351L69.4693 59.8014V60.8221H70.0053V57.7227H69.3101H69.3048Z" fill="#00B4D2"/>
<mask id="mask1_416_11653" style="mask-type:luminance" maskUnits="userSpaceOnUse" x="0" y="0" width="70" height="66">
<path d="M69.9947 0H0V66H69.9947V0Z" fill="white"/>
</mask>
<g mask="url(#mask1_416_11653)">
<path d="M60.793 57.9035V59.4612H59.7369V60.5297H60.793V64.1659C60.793 65.3887 61.3449 66 62.4486 66C62.7511 66 63.0695 65.9522 63.3932 65.8618V64.7454C63.2234 64.7826 63.0536 64.8039 62.8891 64.8039C62.6397 64.8039 62.4699 64.7507 62.369 64.6391C62.2735 64.5328 62.2258 64.352 62.2258 64.1075V60.5244H63.3561V59.4558H62.2258V57.8982H60.7877L60.793 57.9035ZM57.4657 64.7029C57.2693 64.8464 56.9775 64.9208 56.6007 64.9208C56.2239 64.9208 55.8949 64.8305 55.6561 64.6444C55.4173 64.4583 55.29 64.1978 55.274 63.8576H53.8784C53.8784 64.2404 53.9951 64.5966 54.2233 64.9315C54.4515 65.2611 54.7699 65.5269 55.1838 65.713C55.5924 65.9043 56.0594 66 56.5848 66C57.3596 66 57.9857 65.8193 58.4633 65.4631C58.9409 65.1069 59.1797 64.6391 59.1797 64.0596C59.1797 63.7141 59.1001 63.4217 58.9463 63.1825C58.7924 62.9432 58.5536 62.7359 58.2299 62.5605C57.9061 62.3904 57.4657 62.2415 56.8979 62.1139C56.3354 61.9916 55.9586 61.8641 55.7729 61.7418C55.5871 61.6195 55.4969 61.4494 55.4969 61.2261C55.4969 60.9816 55.5978 60.7849 55.7941 60.6413C55.9958 60.4925 56.2505 60.4234 56.5689 60.4234C56.9085 60.4234 57.1791 60.5138 57.3861 60.6998C57.5931 60.8859 57.6939 61.1145 57.6939 61.3909H59.132C59.132 60.7849 58.8985 60.2958 58.4262 59.913C57.9539 59.5356 57.333 59.3442 56.5689 59.3442C55.8525 59.3442 55.2581 59.5303 54.7911 59.9024C54.3242 60.2745 54.0907 60.737 54.0907 61.2899C54.0907 61.9491 54.4515 62.4541 55.1679 62.7997C55.4969 62.9592 55.9055 63.0868 56.3937 63.1931C56.882 63.2941 57.2322 63.4164 57.4445 63.5493C57.6567 63.6822 57.7629 63.8789 57.7629 64.1394C57.7629 64.3733 57.662 64.5593 57.4657 64.7082M51.2888 58.3448C51.4267 58.4883 51.6284 58.5627 51.8884 58.5627C52.1484 58.5627 52.3501 58.4883 52.4934 58.3448C52.6366 58.2012 52.7056 58.0205 52.7056 57.8025C52.7056 57.5846 52.6366 57.3985 52.4934 57.2496C52.3501 57.1061 52.1484 57.0317 51.8884 57.0317C51.6284 57.0317 51.4267 57.1061 51.2888 57.2496C51.1508 57.3932 51.0765 57.5792 51.0765 57.8025C51.0765 58.0258 51.1455 58.2012 51.2888 58.3448ZM52.6048 59.4665H51.1667V65.8831H52.6048V59.4665ZM48.1101 64.7082C47.9137 64.8517 47.6219 64.9262 47.2451 64.9262C46.8683 64.9262 46.5393 64.8358 46.3058 64.6497C46.067 64.4637 45.9397 64.2032 45.9237 63.8629H44.5281C44.5281 64.2457 44.6448 64.6019 44.873 64.9368C45.1012 65.2664 45.4196 65.5322 45.8335 65.7183C46.2421 65.9096 46.7091 66.0053 47.2345 66.0053C48.0092 66.0053 48.6354 65.8246 49.113 65.4684C49.5906 65.1122 49.8294 64.6444 49.8294 64.0649C49.8294 63.7194 49.7498 63.427 49.5959 63.1878C49.442 62.9486 49.2032 62.7412 48.8795 62.5658C48.5558 62.3957 48.1154 62.2468 47.5529 62.1192C46.9904 61.997 46.6136 61.8694 46.4279 61.7471C46.2421 61.6248 46.1466 61.4547 46.1466 61.2314C46.1466 60.9869 46.2474 60.7902 46.4438 60.6467C46.6454 60.4978 46.9002 60.4287 47.2186 60.4287C47.5582 60.4287 47.8288 60.5191 48.0358 60.7051C48.2427 60.8912 48.3436 61.1198 48.3436 61.3962H49.7817C49.7817 60.7902 49.5482 60.3011 49.0759 59.9183C48.6036 59.5409 47.9827 59.3495 47.2186 59.3495C46.5022 59.3495 45.9078 59.5356 45.4408 59.9077C44.9738 60.2798 44.7403 60.7424 44.7403 61.2952C44.7403 61.9544 45.1012 62.4595 45.8176 62.805C46.1466 62.9645 46.5552 63.0921 47.0434 63.1984C47.5316 63.2994 47.8819 63.4217 48.0942 63.5546C48.3064 63.6875 48.4126 63.8842 48.4126 64.1447C48.4126 64.3786 48.3117 64.5647 48.1154 64.7135M41.8588 64.7135C41.6625 64.8571 41.3706 64.9315 40.9939 64.9315C40.6171 64.9315 40.2881 64.8411 40.0546 64.655C39.8158 64.469 39.6884 64.2085 39.6725 63.8682H38.2769C38.2769 64.251 38.3936 64.6072 38.6218 64.9421C38.85 65.2717 39.1684 65.5375 39.5823 65.7236C39.9909 65.915 40.4579 66.0107 40.9832 66.0107C41.758 66.0107 42.3842 65.8299 42.8618 65.4737C43.3394 65.1175 43.5782 64.6497 43.5782 64.0703C43.5782 63.7247 43.4986 63.4323 43.3447 63.1931C43.1908 62.9539 42.952 62.7465 42.6283 62.5711C42.3046 62.401 41.8641 62.2521 41.3016 62.1245C40.7391 62.0023 40.3624 61.8747 40.1766 61.7524C39.9909 61.6301 39.8954 61.46 39.8954 61.2368C39.8954 60.9922 39.9962 60.7955 40.1926 60.652C40.3942 60.5031 40.6489 60.434 40.9673 60.434C41.3069 60.434 41.5776 60.5244 41.7845 60.7105C41.9915 60.8965 42.0923 61.1251 42.0923 61.4016H43.5304C43.5304 60.7955 43.2969 60.3064 42.8246 59.9237C42.3524 59.5462 41.7315 59.3548 40.9673 59.3548C40.2509 59.3548 39.6566 59.5409 39.1896 59.913C38.7226 60.2852 38.4891 60.7477 38.4891 61.3005C38.4891 61.9597 38.85 62.4648 39.5664 62.8103C39.8954 62.9698 40.304 63.0974 40.7922 63.2037C41.2804 63.3047 41.6307 63.427 41.8429 63.5599C42.0552 63.6928 42.1613 63.8895 42.1613 64.15C42.1613 64.3839 42.0605 64.57 41.8641 64.7188M33.7927 59.0943L35.0398 62.6774H32.5404L33.7874 59.0943H33.7927ZM36.1648 65.899H37.7303L34.4667 57.2603H33.1241L29.8658 65.899H31.4207L32.1211 63.8895H35.459L36.1648 65.899Z" fill="#00B4D2"/>
<path d="M26.0875 65.8831H27.7538L25.1164 62.1405L27.4991 59.4665H25.7691L23.9967 61.4653L23.5456 62.0289V56.7712H22.1075V65.8831H23.5456V63.7885L24.1877 63.1293L26.0875 65.8831ZM21.2001 59.4293C21.0674 59.3761 20.8976 59.3442 20.6906 59.3442C20.0751 59.3442 19.5921 59.6206 19.2472 60.1788L19.2101 59.4611H17.8356V65.8777H19.2737V61.4866C19.5019 60.9816 19.9477 60.7264 20.6057 60.7264C20.8074 60.7264 21.0037 60.7423 21.1948 60.7742V59.4239L21.2001 59.4293ZM12.5184 61.0613C12.7943 60.6892 13.1658 60.5031 13.6381 60.5031C14.1104 60.5031 14.4925 60.6945 14.7737 61.0719C15.0497 61.4494 15.1929 61.9651 15.1929 62.6136C15.1929 63.3473 15.0603 63.9001 14.7896 64.2829C14.519 64.6603 14.1422 64.8517 13.654 64.8517C13.1658 64.8517 12.789 64.6657 12.5184 64.2882C12.2477 63.9108 12.1098 63.3951 12.1098 62.7359C12.1098 61.9916 12.2477 61.4334 12.5237 61.0613M10.6717 62.6827C10.6717 63.6875 10.9423 64.4902 11.4836 65.0963C12.0249 65.697 12.7519 66 13.654 66C14.243 66 14.7684 65.8618 15.2195 65.5907C15.6705 65.3195 16.0208 64.9315 16.2596 64.4317C16.5037 63.932 16.6257 63.3685 16.6257 62.7359V62.3957C16.578 61.476 16.2861 60.737 15.7448 60.1788C15.2089 59.6206 14.5031 59.3442 13.6381 59.3442C13.0544 59.3442 12.5396 59.4824 12.0885 59.7482C11.6375 60.0193 11.2872 60.4074 11.0431 60.9125C10.7937 61.4175 10.6717 61.981 10.6717 62.6136V62.6827ZM5.72587 57.2443H4.4735L2.82844 63.7353L1.49117 57.2443H0L1.98999 65.8831H3.42809L5.105 59.5781L6.74475 65.8831H8.17754L10.1675 57.2443H8.68168L7.35501 63.746L5.72587 57.2443Z" fill="#1A1448"/>
</g>
</g>
<defs>
<clipPath id="clip0_416_11653">
<rect width="70" height="66" fill="white"/>
</clipPath>
</defs>
</svg>
