<svg width="258" height="79" viewBox="0 0 258 79" fill="none" xmlns="http://www.w3.org/2000/svg">
<path d="M55.6903 36.1967H3.49345C1.57034 36.1967 0 34.6263 0 32.7032V32.5667C0 30.6322 1.57034 29.0732 3.49345 29.0732H55.6903C57.6248 29.0732 59.1838 30.6322 59.1838 32.5667V32.7032C59.1838 34.6377 57.6134 36.1967 55.6903 36.1967Z" fill="#151349"/>
<path d="M56.5891 39.0537V42.3992C56.5891 43.6623 55.6446 44.7092 54.3815 44.8344L50.1712 45.5399C49.7615 46.8827 49.2153 48.1799 48.5667 49.4203L51.0815 52.9365C51.8553 53.881 51.7757 55.292 50.8881 56.1796L46.1543 60.9134C45.2667 61.8123 43.8443 61.8806 42.8657 61.0727L39.3836 58.592C38.1432 59.252 36.846 59.7868 35.5032 60.1965L34.7864 64.4637C34.6726 65.6699 33.6257 66.6144 32.3512 66.6144H25.6488C24.3857 66.6144 23.3388 65.6699 23.2136 64.4068L22.5081 60.1965C21.1767 59.7868 19.8681 59.252 18.6277 58.592L15.1115 61.1068C14.1784 61.8806 12.7674 61.8123 11.8684 60.9134L7.13463 56.1796C6.23566 55.2806 6.16739 53.8696 6.97532 52.891L9.45601 49.4089C8.79601 48.1686 8.26118 46.8713 7.85152 45.5286L3.58428 44.823C2.37808 44.7092 1.43359 43.6624 1.43359 42.3879V39.0423C1.43359 38.6099 1.78635 38.2686 2.20739 38.2686C2.62842 38.2686 2.98118 38.6213 2.98118 39.0423V42.3879C2.98118 42.8544 3.33394 43.2413 3.78911 43.2868L8.5798 44.0834C8.87566 44.1289 9.11463 44.3451 9.19428 44.641C9.6267 46.1772 10.2526 47.6792 11.0377 49.0903C11.1857 49.352 11.1629 49.682 10.9922 49.921L8.1929 53.8355C7.87428 54.2337 7.89704 54.7572 8.22704 55.0872L12.9608 59.821C13.2908 60.151 13.8029 60.1737 14.167 59.8779L18.127 57.0558C18.3774 56.8737 18.696 56.8623 18.9577 57.0103C20.3688 57.7955 21.8595 58.4213 23.407 58.8537C23.6915 58.9334 23.9077 59.1723 23.9646 59.4682L24.7498 64.2134C24.8067 64.7255 25.1936 65.0668 25.6488 65.0668H32.3512C32.8177 65.0668 33.2046 64.7141 33.2501 64.2589L34.0467 59.4682C34.0922 59.1723 34.3084 58.9334 34.6043 58.8537C36.1519 58.4213 37.6426 57.7955 39.0536 57.0103C39.3153 56.8623 39.6339 56.8851 39.8843 57.0558L43.7988 59.8437C44.197 60.1737 44.7205 60.1396 45.0505 59.8096L49.7843 55.0758C50.1143 54.7458 50.137 54.2337 49.8412 53.8696L47.0191 49.921C46.8484 49.6706 46.8257 49.352 46.9736 49.0903C47.7588 47.6906 48.3846 46.1886 48.817 44.641C48.8967 44.3565 49.1357 44.1403 49.4315 44.0834L54.1767 43.2982C54.6888 43.2413 55.0301 42.8658 55.0301 42.3992V39.0537C55.0301 38.6213 55.3829 38.2799 55.8039 38.2799C56.225 38.2799 56.5777 38.6327 56.5777 39.0537" fill="#01B4D2"/>
<path d="M29.0175 54.8372C37.7227 54.8372 44.8006 47.7592 44.8006 39.0541C44.8006 38.6217 44.4478 38.2803 44.0268 38.2803C43.6058 38.2803 43.253 38.633 43.253 39.0541C43.253 46.9058 36.8692 53.2896 29.0175 53.2896C21.1658 53.2896 14.782 46.9058 14.782 39.0541C14.782 38.6217 14.4292 38.2803 14.0082 38.2803C13.5871 38.2803 13.2344 38.633 13.2344 39.0541C13.2344 47.7592 20.3123 54.8372 29.0175 54.8372Z" fill="#01B4D2"/>
<path d="M36.0845 5.0978L37.1655 10.0478C37.2793 10.5485 36.9607 11.0378 36.46 11.1516C36.3917 11.163 36.3234 11.1743 36.2665 11.1743C35.8227 11.1743 35.4358 10.8671 35.3448 10.4461L33.1372 0.420898H26.2527L24.0565 10.4461C23.9427 10.9468 23.4421 11.2654 22.9414 11.163C22.4407 11.0492 22.1107 10.5599 22.2245 10.0592L23.3283 5.0409C12.609 7.81745 4.92792 17.1143 4.2793 28.0726H54.9172C54.371 17.1599 46.7469 7.86297 36.0845 5.0978Z" fill="#151349"/>
<path d="M90.6619 37.4289L94.1853 20.1592H98.1388L92.8454 43.0863H89.0408L84.6737 26.3458L80.224 43.0863H76.4028L71.1094 20.1592H75.0629L78.6194 37.3958L83.003 20.1592H86.3445L90.6784 37.4289H90.6619Z" fill="#151349"/>
<path d="M99.4951 34.4374C99.4951 32.7667 99.8259 31.2614 100.488 29.9215C101.149 28.5816 102.076 27.556 103.283 26.8282C104.474 26.1003 105.864 25.7529 107.419 25.7529C109.718 25.7529 111.587 26.4973 113.01 27.9695C114.449 29.4583 115.21 31.4103 115.326 33.8585V34.7517C115.326 36.439 115.011 37.9278 114.366 39.2511C113.721 40.5745 112.795 41.6001 111.587 42.3279C110.38 43.0558 108.99 43.4197 107.419 43.4197C105.02 43.4197 103.085 42.6257 101.646 41.0211C100.206 39.4165 99.4785 37.2826 99.4785 34.6194V34.4374H99.4951ZM103.316 34.7683C103.316 36.5217 103.68 37.8947 104.408 38.8872C105.136 39.8797 106.145 40.376 107.435 40.376C108.725 40.376 109.734 39.8797 110.446 38.8707C111.174 37.8616 111.521 36.3894 111.521 34.4374C111.521 32.7171 111.157 31.3441 110.413 30.335C109.668 29.326 108.659 28.8297 107.402 28.8297C106.145 28.8297 105.152 29.326 104.425 30.3185C103.697 31.311 103.316 32.7998 103.316 34.7683Z" fill="#151349"/>
<path d="M127.5 29.5576C127.004 29.4749 126.474 29.4252 125.945 29.4252C124.192 29.4252 123.017 30.1034 122.405 31.4433V43.1054H118.584V26.0672H122.24L122.339 27.9695C123.265 26.4973 124.539 25.7529 126.177 25.7529C126.723 25.7529 127.169 25.8191 127.533 25.968V29.5576H127.5Z" fill="#151349"/>
<path d="M135.443 35.7917L133.739 37.5451V43.1032H129.918V18.9189H133.739V32.8803L134.93 31.3915L139.645 26.0816H144.243L137.908 33.1781L144.921 43.1197H140.505L135.443 35.8082V35.7917Z" fill="#151349"/>
<path d="M165.414 37.7627H156.531L154.678 43.1058H150.543L159.211 20.1787H162.784L171.468 43.1058H167.316L165.447 37.7627H165.414ZM157.656 34.5536H164.306L160.981 25.042L157.656 34.5536Z" fill="#01B4D2"/>
<path d="M183.227 38.4765C183.227 37.7983 182.946 37.269 182.384 36.9216C181.821 36.5577 180.895 36.2434 179.588 35.9787C178.281 35.714 177.206 35.3666 176.33 34.9366C174.411 34.0102 173.468 32.6703 173.468 30.9169C173.468 29.4446 174.096 28.2205 175.32 27.228C176.545 26.2355 178.133 25.7393 180.051 25.7393C182.086 25.7393 183.74 26.2355 184.981 27.2446C186.238 28.2536 186.867 29.5604 186.867 31.165H183.046C183.046 30.4372 182.764 29.8251 182.218 29.3288C181.673 28.8326 180.945 28.601 180.051 28.601C179.208 28.601 178.53 28.7995 178 29.18C177.471 29.5604 177.206 30.0898 177.206 30.7349C177.206 31.3304 177.454 31.777 177.951 32.1079C178.447 32.4387 179.439 32.7696 180.945 33.1004C182.45 33.4312 183.624 33.8282 184.485 34.2749C185.345 34.738 185.973 35.2839 186.387 35.9291C186.801 36.5742 187.016 37.3517 187.016 38.2615C187.016 39.7999 186.387 41.0405 185.113 41.9834C183.84 42.9263 182.185 43.406 180.118 43.406C178.728 43.406 177.471 43.1579 176.379 42.6451C175.287 42.1323 174.444 41.4541 173.832 40.5608C173.22 39.6675 172.922 38.7246 172.922 37.7156H176.644C176.693 38.6254 177.041 39.3202 177.669 39.7999C178.298 40.2961 179.142 40.5277 180.167 40.5277C181.193 40.5277 181.937 40.3292 182.467 39.9487C182.996 39.5683 183.261 39.072 183.261 38.4434L183.227 38.4765Z" fill="#01B4D2"/>
<path d="M199.871 38.4765C199.871 37.7983 199.59 37.269 199.027 36.9216C198.465 36.5577 197.539 36.2434 196.232 35.9787C194.925 35.714 193.85 35.3666 192.973 34.9366C191.054 34.0102 190.111 32.6703 190.111 30.9169C190.111 29.4446 190.74 28.2205 191.964 27.228C193.188 26.2355 194.776 25.7393 196.695 25.7393C198.73 25.7393 200.384 26.2355 201.624 27.2446C202.882 28.2536 203.51 29.5604 203.51 31.165H199.689C199.689 30.4372 199.408 29.8251 198.862 29.3288C198.316 28.8326 197.588 28.601 196.695 28.601C195.851 28.601 195.173 28.7995 194.644 29.18C194.114 29.5604 193.85 30.0898 193.85 30.7349C193.85 31.3304 194.098 31.777 194.594 32.1079C195.09 32.4387 196.083 32.7696 197.588 33.1004C199.094 33.4312 200.268 33.8282 201.128 34.2749C201.988 34.738 202.617 35.2839 203.031 35.9291C203.444 36.5742 203.659 37.3517 203.659 38.2615C203.659 39.7999 203.031 41.0405 201.757 41.9834C200.483 42.9263 198.829 43.406 196.761 43.406C195.372 43.406 194.114 43.1579 193.023 42.6451C191.931 42.1323 191.087 41.4541 190.475 40.5608C189.863 39.6675 189.565 38.7246 189.565 37.7156H193.287C193.337 38.6254 193.684 39.3202 194.313 39.7999C194.942 40.2961 195.785 40.5277 196.811 40.5277C197.836 40.5277 198.581 40.3292 199.11 39.9487C199.639 39.5683 199.904 39.072 199.904 38.4434L199.871 38.4765Z" fill="#01B4D2"/>
<path d="M206.983 21.6362C206.983 21.0406 207.165 20.5609 207.546 20.1639C207.926 19.7669 208.456 19.585 209.15 19.585C209.845 19.585 210.374 19.7835 210.755 20.1639C211.135 20.5444 211.317 21.0406 211.317 21.6362C211.317 22.2317 211.135 22.6948 210.755 23.0753C210.374 23.4558 209.845 23.6543 209.15 23.6543C208.456 23.6543 207.926 23.4558 207.546 23.0753C207.165 22.6948 206.983 22.2151 206.983 21.6362ZM211.053 43.1075H207.232V26.0694H211.053V43.1075Z" fill="#01B4D2"/>
<path d="M224.768 38.4765C224.768 37.7983 224.486 37.269 223.924 36.9216C223.361 36.5577 222.435 36.2434 221.128 35.9787C219.821 35.714 218.746 35.3666 217.87 34.9366C215.951 34.0102 215.008 32.6703 215.008 30.9169C215.008 29.4446 215.636 28.2205 216.861 27.228C218.085 26.2355 219.673 25.7393 221.591 25.7393C223.626 25.7393 225.28 26.2355 226.521 27.2446C227.778 28.2536 228.407 29.5604 228.407 31.165H224.586C224.586 30.4372 224.304 29.8251 223.758 29.3288C223.213 28.8326 222.485 28.601 221.591 28.601C220.748 28.601 220.07 28.7995 219.54 29.18C219.011 29.5604 218.746 30.0898 218.746 30.7349C218.746 31.3304 218.994 31.777 219.491 32.1079C219.987 32.4387 220.979 32.7696 222.485 33.1004C223.99 33.4312 225.165 33.8282 226.025 34.2749C226.885 34.738 227.513 35.2839 227.927 35.9291C228.341 36.5742 228.556 37.3517 228.556 38.2615C228.556 39.7999 227.927 41.0405 226.653 41.9834C225.38 42.9263 223.725 43.406 221.658 43.406C220.268 43.406 219.011 43.1579 217.919 42.6451C216.827 42.1323 215.984 41.4541 215.372 40.5608C214.76 39.6675 214.462 38.7246 214.462 37.7156H218.184C218.233 38.6254 218.581 39.3202 219.209 39.7999C219.838 40.2961 220.682 40.5277 221.707 40.5277C222.733 40.5277 223.477 40.3292 224.007 39.9487C224.536 39.5683 224.801 39.072 224.801 38.4434L224.768 38.4765Z" fill="#01B4D2"/>
<path d="M236.66 21.9326V26.0681H239.67V28.8968H236.66V38.4083C236.66 39.0535 236.792 39.5332 237.04 39.8144C237.305 40.0956 237.751 40.2445 238.413 40.2445C238.86 40.2445 239.306 40.1949 239.753 40.0956V43.0566C238.876 43.3048 238.033 43.4205 237.239 43.4205C234.294 43.4205 232.822 41.7994 232.822 38.5572V28.8968H230.01V26.0681H232.822V21.9326H236.643H236.66Z" fill="#01B4D2"/>
<path d="M248.67 17.9463V26.1676H250.092V23.4547L249.96 19.8321L252.375 26.1676H253.401L255.832 19.8321L255.684 23.4547V26.1676H257.106V17.9463H255.253L252.888 24.2488L250.523 17.9463H248.67ZM247.595 17.9463H241.061V19.1042H243.608V26.1842H245.031V19.1042H247.595V17.9463Z" fill="#01B4D2"/>
</svg>
